<?xml version="1.0" standalone="no"?>
<!DOCTYPE svg PUBLIC "-//W3C//DTD SVG 20010904//EN"
 "http://www.w3.org/TR/2001/REC-SVG-20010904/DTD/svg10.dtd">
<svg version="1.0" xmlns="http://www.w3.org/2000/svg"
 width="1024.000000pt" height="366.000000pt" viewBox="0 0 1024.000000 366.000000"
 preserveAspectRatio="xMidYMid meet">
<metadata>
Created by potrace 1.16, written by Peter Selinger 2001-2019
</metadata>
<g transform="translate(0.000000,366.000000) scale(0.100000,-0.100000)"
fill="#000000" stroke="none">
<path d="M804 3070 c-17 -4 -55 -21 -85 -38 -165 -94 -322 -290 -392 -489 -28
-78 -31 -101 -32 -198 0 -103 2 -114 32 -177 53 -112 183 -215 260 -206 43 5
41 38 -9 135 l-43 86 1 146 c0 132 3 154 28 231 40 121 92 216 158 285 l57 60
0 -625 c0 -822 -7 -1000 -44 -1146 -16 -61 -25 -119 -22 -128 16 -41 112 -3
187 74 25 26 60 76 78 112 53 108 63 168 72 453 10 301 11 1114 1 1258 -5 89
-8 100 -31 117 -48 37 -159 63 -216 50z"/>
<path d="M3430 3050 c-7 -13 -14 -91 -17 -192 l-6 -170 -136 3 -136 4 -22 -45
c-15 -27 -23 -62 -23 -92 0 -43 3 -50 26 -58 14 -6 81 -10 150 -10 l124 0 0
-298 c0 -327 -3 -349 -62 -467 -17 -33 -51 -87 -77 -119 l-46 -59 -5 79 c-10
136 -69 213 -287 374 -56 41 -102 78 -103 82 0 4 18 33 40 64 49 71 80 151 80
210 0 37 -6 51 -29 75 -27 26 -36 29 -96 29 -103 0 -182 -42 -236 -128 -57
-91 -59 -199 -4 -283 l23 -36 -55 -104 c-143 -270 -271 -458 -306 -446 -44 14
-56 186 -39 576 12 262 10 276 -49 326 -60 50 -134 78 -194 73 -144 -12 -255
-154 -376 -479 l-49 -134 2 278 c1 174 -2 281 -8 287 -19 19 -123 50 -168 50
-25 0 -48 -6 -55 -14 -9 -10 -11 -160 -9 -567 3 -513 4 -556 21 -587 23 -41
69 -62 139 -62 62 0 98 20 98 55 0 95 92 430 167 607 59 141 201 364 219 345
3 -3 0 -144 -7 -315 -14 -342 -7 -474 31 -575 60 -161 217 -154 376 14 63 68
101 124 249 372 l118 198 36 -33 c113 -104 137 -128 172 -181 60 -92 64 -185
12 -248 -52 -61 -104 -59 -208 11 -73 49 -110 52 -147 13 -47 -51 -72 -120
-58 -158 12 -32 117 -81 204 -96 97 -16 247 -7 318 20 136 52 244 156 330 318
l44 82 16 -82 c42 -218 129 -326 277 -344 70 -8 129 16 191 78 47 47 110 142
125 188 7 23 25 29 25 7 0 -30 73 -156 110 -190 70 -63 114 -80 210 -81 77 0
92 3 152 33 66 32 157 118 181 169 9 21 12 19 33 -34 26 -64 71 -115 129 -146
56 -30 164 -30 221 0 43 23 108 89 126 129 14 31 21 30 39 -2 27 -52 117 -123
177 -140 116 -34 257 9 352 106 l50 51 0 -48 0 -48 -101 -90 c-145 -129 -319
-313 -356 -376 -86 -144 -78 -297 19 -396 98 -100 285 -125 421 -57 68 35 152
121 182 187 63 136 91 351 81 608 l-6 166 67 84 c144 182 311 477 374 661 l23
67 86 3 c47 2 88 1 92 -2 4 -3 -1 -51 -13 -105 -28 -141 -37 -404 -15 -503 21
-101 56 -173 111 -227 135 -135 316 -120 420 36 l31 45 24 -39 c81 -130 255
-171 406 -97 58 28 184 145 184 170 0 25 17 5 32 -38 20 -56 72 -113 131 -144
32 -17 59 -22 112 -23 92 0 141 27 194 106 l38 57 6 -55 c3 -30 13 -63 22 -73
32 -35 167 -52 233 -29 37 13 39 18 47 209 8 188 21 276 61 409 44 148 113
295 124 266 4 -11 10 -90 13 -175 12 -270 42 -477 80 -545 28 -50 75 -77 135
-78 68 -2 101 9 106 36 2 12 9 75 15 141 19 201 78 436 149 594 l19 43 6 -243
c8 -336 29 -449 103 -550 88 -121 249 -153 353 -70 68 55 131 217 131 337 0
56 -12 75 -47 75 -30 0 -47 -29 -67 -115 -21 -85 -52 -144 -88 -164 -25 -14
-29 -14 -55 5 -16 12 -38 45 -50 76 -37 91 -46 221 -39 549 l6 297 -24 29
c-31 37 -136 85 -198 91 -58 6 -90 -12 -118 -67 -32 -64 -127 -358 -153 -476
l-24 -110 -7 65 c-4 36 -10 158 -15 271 -6 189 -9 208 -29 236 -46 65 -192
105 -248 68 -33 -21 -64 -89 -136 -295 l-57 -165 -1 205 c0 113 -4 211 -9 218
-11 17 -133 52 -182 52 -20 0 -41 -6 -47 -13 -7 -8 -13 -154 -17 -397 -7 -372
-8 -387 -32 -460 -47 -144 -113 -215 -174 -189 -17 6 -36 24 -43 38 -38 74
-49 271 -37 651 5 157 5 282 0 291 -16 31 -80 53 -159 53 -75 1 -75 1 -91 -31
l-16 -32 -29 31 c-75 80 -228 104 -332 52 -101 -50 -207 -205 -246 -359 -35
-138 -45 -320 -25 -460 12 -90 -4 -154 -50 -204 -122 -130 -234 96 -201 405 6
60 24 170 41 244 16 74 29 148 29 163 0 47 -28 94 -67 112 -41 20 -86 17 -250
-13 l-103 -19 0 64 c0 58 -3 68 -29 94 -26 25 -37 29 -86 29 -103 0 -162 -50
-186 -154 -14 -64 0 -124 40 -168 l29 -32 -19 -67 c-29 -105 -105 -273 -180
-401 -38 -65 -72 -118 -76 -118 -3 0 -4 182 -1 405 5 378 4 405 -12 420 -25
23 -105 45 -161 45 -54 0 -79 -18 -79 -57 0 -24 -3 -23 -54 24 -62 57 -107 73
-203 73 -123 0 -218 -70 -296 -217 -76 -144 -117 -373 -102 -563 11 -130 9
-146 -20 -206 -28 -58 -75 -104 -106 -104 -35 0 -78 51 -96 115 -15 53 -18
110 -18 468 l0 409 -23 19 c-51 41 -185 54 -215 21 -10 -10 -17 -27 -17 -36 0
-14 -9 -10 -41 19 -62 56 -112 75 -199 75 -119 0 -199 -47 -280 -165 -74 -107
-114 -246 -130 -451 -6 -71 -18 -151 -26 -179 -42 -131 -145 -260 -201 -253
-36 4 -68 52 -85 126 -14 63 -17 534 -3 795 l7 147 123 0 c165 0 213 7 231 35
22 33 30 118 13 132 -8 6 -68 14 -134 17 -66 4 -144 9 -174 12 l-54 6 6 158
c6 141 5 159 -11 173 -27 24 -111 49 -183 54 -62 5 -68 4 -79 -17z m1099 -805
c43 -22 79 -70 98 -133 27 -86 24 -368 -5 -474 -69 -254 -219 -337 -305 -167
-38 76 -51 153 -50 309 1 247 58 415 155 463 41 21 71 21 107 2z m1155 1 c18
-7 42 -27 54 -43 104 -146 63 -627 -67 -766 -91 -99 -184 -62 -233 93 -20 66
-23 94 -22 230 0 177 16 269 65 368 38 79 95 126 157 131 7 1 28 -5 46 -13z
m2020 -11 c63 -42 96 -159 96 -344 0 -185 -32 -326 -93 -417 -83 -124 -177
-124 -237 1 -41 83 -54 181 -47 350 10 227 54 357 142 411 46 28 95 28 139 -1z
m-1894 -1475 c-27 -214 -87 -310 -195 -310 -82 0 -132 64 -122 157 11 105 86
228 235 385 l87 91 3 -114 c2 -63 -2 -157 -8 -209z"/>
</g>
</svg>
