<?xml version="1.0" standalone="no"?>
<!DOCTYPE svg PUBLIC "-//W3C//DTD SVG 20010904//EN"
 "http://www.w3.org/TR/2001/REC-SVG-20010904/DTD/svg10.dtd">
<svg version="1.0" xmlns="http://www.w3.org/2000/svg"
 width="1242.000000pt" height="1211.000000pt" viewBox="0 0 1242.000000 1211.000000"
 preserveAspectRatio="xMidYMid meet">
<metadata>
Created by potrace 1.16, written by Peter Selinger 2001-2019
</metadata>
<g transform="translate(0.000000,1211.000000) scale(0.100000,-0.100000)"
fill="#000000" stroke="none">
<path d="M6323 11931 c-50 -23 -76 -67 -76 -129 0 -60 23 -86 139 -159 114
-72 134 -92 134 -138 0 -46 -38 -75 -97 -75 -87 0 -126 33 -157 133 -12 39
-27 4 -22 -51 4 -46 10 -60 33 -78 54 -44 162 -56 233 -28 56 23 83 63 84 130
0 46 -4 58 -29 85 -17 17 -71 55 -120 84 -107 63 -128 84 -128 127 0 38 41 78
81 78 79 0 130 -37 149 -108 12 -49 28 -43 31 14 4 66 -20 98 -90 119 -68 20
-114 19 -165 -4z"/>
<path d="M4432 11914 c-91 -45 -135 -124 -136 -244 0 -118 52 -211 149 -263
55 -30 210 -31 273 -3 l42 19 0 83 c0 94 11 134 40 141 11 3 20 11 20 19 0 18
-67 8 -100 -16 -23 -16 -25 -24 -28 -113 l-3 -95 -31 -11 c-43 -15 -132 -14
-171 3 -69 29 -107 109 -107 225 0 88 22 149 70 196 34 33 47 39 94 43 30 2
66 2 80 -2 38 -9 95 -64 104 -100 12 -46 27 -32 25 22 -2 39 -8 52 -34 74 -64
54 -201 65 -287 22z"/>
<path d="M6023 11922 c-31 -5 -29 -22 2 -22 31 0 45 -26 45 -84 l0 -45 -69 6
c-59 5 -74 3 -103 -15 -49 -31 -71 -74 -76 -156 -10 -169 94 -262 220 -198 35
18 37 18 53 0 9 -11 24 -18 33 -16 15 3 17 26 19 238 3 270 1 282 -62 290 -22
3 -50 4 -62 2z m21 -192 c26 -9 26 -10 26 -132 0 -111 -2 -124 -22 -145 -26
-28 -79 -31 -104 -6 -57 57 -59 212 -4 271 22 24 62 28 104 12z"/>
<path d="M8020 11910 c0 -5 11 -10 25 -10 31 0 45 -26 45 -84 l0 -45 -69 6
c-59 5 -74 3 -103 -15 -47 -29 -70 -74 -76 -148 -11 -136 47 -224 148 -224 27
0 58 8 76 19 31 19 31 19 48 -1 9 -10 25 -18 34 -16 15 3 17 26 20 242 3 288
4 286 -88 286 -33 0 -60 -4 -60 -10z m44 -180 c26 -9 26 -10 26 -133 0 -110
-2 -126 -20 -145 -28 -30 -82 -30 -110 0 -46 50 -52 185 -10 253 18 29 28 35
55 35 19 0 45 -4 59 -10z"/>
<path d="M6693 11889 c-27 -10 -43 -39 -43 -78 0 -26 -4 -31 -23 -31 -13 0
-26 -3 -30 -6 -12 -12 6 -34 29 -34 l24 0 0 -140 c0 -80 5 -149 11 -163 21
-46 101 -62 159 -32 45 23 37 36 -16 28 -69 -9 -74 2 -74 169 l0 138 45 0 c25
0 45 5 45 11 0 13 39 2 58 -16 10 -8 15 -61 20 -176 l7 -164 30 0 30 0 3 144
c2 93 7 150 14 159 22 26 58 33 97 20 20 -7 42 -11 49 -10 6 2 12 -4 12 -13 0
-8 9 -15 20 -15 11 0 20 5 20 10 0 24 41 50 79 50 48 0 81 -35 81 -85 0 -33 0
-33 -62 -40 -137 -16 -179 -61 -152 -162 15 -56 128 -82 190 -44 31 19 32 19
52 -1 12 -12 27 -18 36 -15 14 5 16 28 16 149 0 156 -9 187 -64 224 -37 23
-165 17 -195 -10 -21 -19 -22 -19 -37 2 -18 26 -80 30 -123 7 -26 -13 -33 -13
-60 1 -17 9 -51 15 -74 14 -23 -2 -63 -2 -89 -1 l-48 1 0 54 c0 60 -5 68 -37
55z m647 -365 c0 -46 -4 -60 -22 -75 -46 -40 -118 -10 -118 49 0 44 50 80 113
81 26 1 27 0 27 -55z"/>
<path d="M4820 11770 c0 -6 11 -15 25 -20 32 -12 35 -27 38 -205 l2 -150 32
-3 c41 -4 42 2 46 178 l2 135 38 12 c28 10 44 10 65 1 15 -6 33 -10 40 -9 6 1
12 -5 12 -14 0 -26 34 -16 52 15 16 29 39 37 88 30 27 -3 51 -36 57 -77 l5
-40 -58 -7 c-80 -10 -117 -22 -143 -49 -25 -27 -31 -92 -11 -123 33 -54 127
-71 186 -35 31 19 32 19 52 -1 12 -12 27 -18 36 -15 14 5 16 27 16 142 0 144
-9 184 -49 220 -32 28 -145 34 -194 10 -33 -16 -38 -16 -52 -1 -23 23 -96 21
-126 -3 -24 -19 -25 -19 -48 0 -25 20 -111 27 -111 9z m500 -243 c0 -40 -5
-59 -20 -75 -42 -45 -120 -15 -120 46 0 44 50 80 113 81 26 1 27 -1 27 -52z"/>
<path d="M5402 11769 c3 -8 13 -16 24 -17 10 -2 24 -8 29 -13 6 -6 12 -85 15
-177 l5 -167 35 0 35 0 3 155 c2 144 4 156 23 173 21 17 64 22 93 11 33 -12
41 -48 46 -194 l5 -145 35 0 35 0 3 115 c4 151 -3 194 -37 232 -23 26 -37 32
-83 36 -40 3 -66 -1 -93 -13 -30 -15 -38 -16 -45 -5 -12 20 -134 28 -128 9z"/>
<path d="M7417 11774 c-11 -12 3 -24 28 -24 35 0 45 -48 45 -218 l0 -143 33 3
32 3 3 152 c2 150 3 152 29 172 35 28 78 27 108 -4 23 -22 25 -31 26 -132 1
-200 -1 -188 39 -188 l35 0 3 146 c1 81 -2 158 -7 173 -23 58 -133 86 -202 51
-27 -14 -32 -14 -51 0 -22 15 -108 21 -121 9z"/>
<path d="M7238 11219 c-14 -21 -14 -21 -65 -3 -42 15 -56 16 -77 6 -34 -15
-37 -62 -5 -62 17 0 20 5 17 25 -3 14 -2 25 3 25 11 0 78 -44 79 -52 0 -3 -31
-35 -70 -69 -38 -35 -70 -69 -70 -76 0 -18 29 -16 36 2 8 20 19 19 81 -7 l53
-22 28 21 c31 23 37 66 10 71 -14 3 -18 -3 -18 -27 0 -38 -18 -40 -63 -9 -18
13 -34 24 -36 26 -3 1 27 35 67 75 40 40 72 78 72 85 0 19 -26 14 -42 -9z"/>
<path d="M6028 11213 c-27 -17 -43 -41 -33 -51 3 -3 14 3 25 13 11 10 20 16
20 13 0 -2 -15 -44 -34 -91 -19 -48 -31 -89 -27 -91 12 -8 28 8 51 53 28 55
110 145 122 133 5 -5 -5 -44 -26 -93 -19 -46 -32 -87 -30 -91 10 -16 35 6 52
46 24 53 112 150 124 138 6 -6 -2 -37 -21 -83 -33 -79 -38 -109 -18 -109 15 0
57 27 75 48 20 26 14 34 -13 16 -29 -19 -34 -6 -11 38 62 119 26 171 -60 85
-40 -40 -43 -42 -38 -18 17 72 -13 82 -75 25 l-40 -35 6 35 c6 41 -5 46 -49
19z"/>
<path d="M6454 11211 c-41 -26 -71 -60 -89 -103 -17 -43 -20 -94 -4 -103 18
-12 55 4 88 37 33 34 36 33 21 -7 -8 -20 -7 -27 5 -31 16 -6 85 32 85 47 0 13
-14 11 -28 -3 -23 -23 -21 0 8 83 17 46 30 86 30 89 0 14 -90 7 -116 -9z"/>
<path d="M6674 11220 c-47 -19 -73 -112 -39 -140 14 -12 14 -15 -1 -31 -9 -10
-14 -27 -12 -37 4 -14 -4 -24 -29 -37 -33 -18 -50 -52 -40 -79 11 -28 58 -50
107 -50 88 0 136 60 89 110 -13 14 -38 34 -56 45 -42 26 -42 45 2 59 45 15 75
54 75 97 0 32 2 35 24 29 16 -4 26 -1 30 9 7 19 -16 29 -48 21 -14 -3 -28 -2
-31 4 -7 12 -42 12 -71 0z"/>
<path d="M6930 11222 c-63 -20 -144 -158 -119 -203 14 -27 43 -23 82 11 42 36
49 38 37 5 -17 -45 28 -45 70 0 17 18 19 25 9 25 -8 0 -20 -5 -27 -12 -18 -18
-15 0 14 77 41 109 41 102 -8 102 -24 0 -50 -2 -58 -5z"/>
<path d="M7525 11221 c-26 -11 -60 -49 -52 -58 4 -3 16 2 27 12 33 30 34 10 1
-75 -17 -45 -29 -86 -26 -90 12 -19 33 3 54 55 27 65 114 153 119 120 1 -11
-11 -54 -27 -95 -31 -79 -31 -90 -1 -90 23 0 78 45 67 56 -4 4 -13 2 -19 -4
-26 -26 -27 -9 -3 54 29 77 33 124 9 124 -21 0 -54 -18 -84 -46 l-26 -24 4 35
c4 37 -4 42 -43 26z"/>
<path d="M7823 11211 c-35 -22 -79 -91 -89 -138 -8 -42 10 -73 44 -73 30 0 92
34 92 50 0 14 -11 12 -34 -5 -30 -23 -55 -18 -62 10 -7 28 10 55 35 55 51 0
115 76 90 106 -16 19 -38 17 -76 -5z"/>
<path d="M5793 10675 c-73 -20 -127 -49 -180 -98 -125 -115 -137 -307 -27
-435 63 -74 167 -123 407 -193 118 -34 148 -65 112 -116 -32 -46 -125 -50
-228 -11 -35 14 -73 59 -82 98 l-7 30 -143 0 c-89 0 -146 -4 -150 -10 -4 -6
-3 -96 1 -201 l7 -190 136 3 135 3 8 44 c8 48 16 61 26 44 13 -20 137 -82 197
-98 74 -19 169 -19 259 0 107 23 197 85 245 170 28 49 39 163 22 231 -22 87
-128 185 -247 228 -27 10 -58 21 -69 26 -11 4 -69 25 -128 45 -127 44 -178 83
-170 128 4 20 17 34 46 49 58 29 134 22 185 -19 40 -32 71 -84 72 -120 0 -23
2 -23 134 -23 74 0 140 2 148 5 10 4 13 45 11 198 l-2 192 -138 0 -137 0 -9
-45 c-5 -25 -11 -47 -13 -50 -3 -2 -17 10 -32 27 -72 83 -254 124 -389 88z"/>
<path d="M9498 10673 l-228 -3 0 -105 0 -105 44 0 c34 0 46 -4 49 -17 3 -10 6
-163 7 -340 l1 -322 -51 -7 -51 -7 3 -96 3 -96 475 0 475 0 0 175 0 175 -105
3 c-58 2 -120 0 -137 -3 l-33 -6 0 -70 0 -71 -122 4 -123 3 -3 121 -3 121 38
7 c21 3 89 6 151 6 l113 0 -3 103 -3 102 -147 3 -148 3 0 104 0 105 28 0 c15
0 70 1 122 3 l95 2 1 -65 1 -65 141 -3 141 -3 -4 28 c-2 16 -4 94 -4 176 l-1
147 -247 -2 c-137 -2 -350 -4 -475 -5z"/>
<path d="M10314 10667 c-2 -7 -3 -98 -2 -202 l3 -190 120 -3 120 -3 0 98 0 98
63 3 62 4 0 -49 c0 -26 3 -182 7 -345 l6 -298 -66 0 -67 0 0 -100 0 -100 295
0 295 0 1 78 c0 42 2 87 5 100 3 19 0 22 -29 22 -17 0 -49 3 -69 6 l-38 7 0
338 0 339 60 0 60 0 0 -100 0 -100 119 0 119 0 3 28 c2 15 3 107 1 205 l-3
177 -530 0 c-421 0 -531 -3 -535 -13z"/>
<path d="M6887 10663 l-257 -3 2 -203 3 -202 117 -3 117 -3 3 98 3 98 58 5
c32 3 60 3 63 1 2 -2 4 -157 4 -343 l0 -338 -60 0 -60 0 0 -105 0 -105 295 0
295 0 0 105 0 105 -52 1 c-29 1 -57 1 -61 0 -4 -1 -9 4 -11 11 -8 25 -14 645
-7 657 4 7 33 15 64 18 l56 6 3 -104 3 -104 115 0 115 0 3 208 2 207 -277 -2
c-153 -2 -394 -4 -536 -5z"/>
<path d="M8217 10663 c-3 -5 -5 -52 -3 -104 l2 -94 44 -5 45 -5 3 -342 2 -343
-45 0 -45 0 0 -105 0 -105 258 2 257 3 0 100 0 100 -47 8 -48 9 0 114 c0 63 1
114 3 115 1 0 61 4 132 9 154 9 224 30 293 88 26 22 59 62 72 89 22 42 25 61
25 148 0 89 -3 106 -28 157 -33 67 -84 111 -164 141 -54 20 -79 22 -404 25
-195 2 -349 0 -352 -5z m583 -225 c55 -38 74 -117 42 -177 -25 -47 -74 -71
-143 -71 l-56 0 -6 94 c-3 52 -3 113 0 135 l6 41 62 0 c48 0 70 -5 95 -22z"/>
<path d="M1355 10646 c-99 -26 -162 -63 -238 -140 -173 -177 -217 -485 -103
-722 63 -130 197 -233 344 -263 122 -25 303 -11 405 32 76 32 227 149 227 175
0 6 -41 54 -91 107 l-92 95 -58 -55 c-32 -31 -77 -64 -101 -75 -108 -49 -227
-4 -284 108 -25 48 -30 71 -33 151 -4 132 24 224 89 286 25 24 41 30 90 33 59
4 61 4 99 -35 24 -24 43 -55 51 -83 7 -25 14 -51 16 -57 2 -10 40 -13 144 -13
l140 0 0 225 0 225 -125 0 -124 0 -17 -35 c-19 -41 -23 -42 -52 -14 -58 54
-194 80 -287 55z"/>
<path d="M4677 10652 l-258 -2 3 -103 3 -102 47 -3 47 -3 3 -102 c2 -56 3
-210 3 -342 0 -185 -3 -240 -12 -241 -7 -1 -29 -2 -48 -3 l-35 -1 0 -100 0
-100 480 0 480 0 -2 178 -3 177 -137 0 -138 0 0 -72 0 -73 -125 0 -125 0 0
124 0 123 38 7 c20 3 88 6 150 6 l113 0 -3 103 -3 102 -147 3 -148 3 0 103 0
103 38 7 c48 8 176 8 196 0 12 -5 16 -21 16 -69 l0 -63 93 -7 c93 -6 138 -6
169 2 16 4 17 21 15 171 -1 92 -6 170 -11 174 -9 6 -122 6 -699 0z"/>
<path d="M2797 10642 l-78 -3 3 -102 3 -102 38 -3 37 -3 0 -243 c0 -265 -9
-323 -56 -367 -31 -29 -107 -37 -157 -15 -73 30 -96 139 -97 457 l0 165 43 10
42 9 2 98 1 97 -254 0 -254 0 0 -104 0 -105 43 -3 42 -3 6 -270 c6 -288 11
-321 66 -429 74 -145 253 -226 478 -213 109 6 148 17 212 60 84 55 123 112
166 242 17 52 20 96 24 338 l5 277 39 6 c21 4 39 10 39 15 4 62 0 180 -5 189
-6 10 -148 11 -388 2z"/>
<path d="M3272 10641 c-11 -6 -13 -49 -10 -201 2 -105 6 -196 9 -201 3 -6 56
-8 120 -7 l114 3 -2 96 -2 97 37 6 c84 14 89 11 96 -46 3 -29 6 -185 6 -345
l0 -293 -65 0 -65 0 0 -105 0 -105 295 0 295 0 0 105 0 105 -27 0 c-16 0 -45
3 -65 6 l-38 7 0 333 0 334 23 6 c13 3 41 4 63 2 l39 -3 3 -98 3 -98 116 3
116 3 0 200 -1 200 -524 2 c-287 2 -529 -1 -536 -6z"/>
<path d="M4697 9296 c35 -14 73 -34 85 -45 12 -12 25 -21 28 -21 4 0 24 -27
44 -60 84 -136 83 -369 -2 -492 -52 -76 -125 -121 -232 -142 -14 -3 3 -3 37
-1 121 6 221 73 275 183 33 66 33 69 33 207 0 130 -2 144 -26 196 -52 111
-146 182 -254 194 l-50 6 62 -25z"/>
<path d="M4073 9302 c-8 -5 -10 -41 -9 -112 6 -206 3 -190 31 -190 l25 0 0
155 c0 141 -2 155 -17 155 -10 0 -23 -4 -30 -8z"/>
<path d="M5300 9300 c-9 -6 -11 -10 -3 -10 11 0 33 -30 98 -131 93 -146 158
-239 166 -239 5 0 9 15 9 33 0 24 -27 71 -111 195 -109 160 -124 175 -159 152z"/>
<path d="M6627 9304 c-4 -4 -7 -67 -7 -140 0 -138 5 -152 42 -132 16 8 17 23
14 141 -3 122 -4 132 -22 135 -11 2 -23 0 -27 -4z"/>
<path d="M8125 9298 c-3 -8 -4 -70 -3 -139 l3 -124 25 0 25 0 0 135 c0 132 0
135 -23 138 -12 2 -24 -3 -27 -10z"/>
<path d="M5773 9173 l-22 -4 -3 -310 -3 -309 28 0 27 0 0 315 c0 173 -1 314
-2 314 -2 -1 -13 -4 -25 -6z"/>
<path d="M4515 9163 c-65 -16 -100 -99 -100 -238 0 -83 4 -108 23 -146 28 -58
49 -77 93 -86 l34 -6 -32 36 c-47 53 -67 131 -61 236 6 89 35 174 64 185 8 3
14 10 14 16 0 10 -2 11 -35 3z"/>
<path d="M6374 9157 c-2 -7 -3 -116 -2 -242 3 -229 3 -230 25 -233 l22 -3 3
245 3 246 -23 0 c-12 0 -25 -6 -28 -13z"/>
<path d="M7742 9150 c-27 -16 -33 -26 -30 -47 4 -36 48 -65 151 -99 165 -54
243 -108 268 -181 18 -54 5 -138 -27 -185 -30 -43 -106 -88 -149 -88 -14 0
-25 -5 -25 -11 0 -16 70 -4 131 23 80 34 139 116 139 193 0 43 -23 98 -55 134
-40 43 -88 69 -231 121 -58 21 -114 46 -125 56 -23 20 -25 57 -4 74 8 7 15 16
15 21 0 15 -23 10 -58 -11z"/>
<path d="M8697 9163 c-11 -10 -8 -473 2 -473 5 0 16 -3 25 -6 14 -6 16 20 16
240 0 232 -1 246 -18 246 -10 0 -22 -3 -25 -7z"/>
<path d="M3723 9130 c-50 -22 -67 -46 -86 -122 -40 -154 31 -298 146 -298 19
0 18 3 -10 19 -17 11 -44 41 -59 68 -24 40 -29 58 -29 123 0 88 15 138 56 181
39 42 33 52 -18 29z"/>
<path d="M3997 8803 c-13 -12 -7 -21 38 -70 24 -26 45 -50 45 -53 0 -11 -88
-79 -136 -104 -27 -14 -62 -27 -77 -28 -29 -3 -38 -18 -9 -18 26 0 104 26 153
50 46 23 129 86 129 98 0 4 -25 35 -56 70 -52 59 -72 71 -87 55z"/>
<path d="M2016 8570 c-33 -35 -46 -38 -46 -11 0 24 -46 34 -123 25 -49 -6 -60
-11 -68 -30 -5 -14 -17 -24 -28 -24 -11 0 -23 -5 -27 -11 -3 -6 -15 -9 -25 -6
-11 3 -19 1 -19 -3 0 -8 -51 -24 -78 -25 -7 0 -17 -6 -21 -14 -5 -8 -16 -11
-25 -8 -10 4 -16 1 -16 -8 0 -8 -5 -15 -11 -15 -6 0 -9 -7 -5 -15 7 -19 -3
-45 -17 -45 -7 0 -7 4 1 12 20 20 14 29 -15 22 -26 -7 -27 -7 -10 10 24 24 21
39 -5 32 -30 -7 -161 14 -170 28 -14 20 -8 27 15 21 12 -3 17 -3 11 2 -6 4
-14 17 -18 28 -5 16 -16 20 -61 22 -52 3 -55 2 -55 -21 0 -50 -17 -76 -50 -76
-26 0 -30 4 -31 28 -1 15 -1 30 0 34 1 10 -42 20 -70 16 -25 -3 -27 -14 -18
-83 4 -27 0 -32 -38 -49 -49 -22 -53 -33 -18 -46 30 -12 34 -52 7 -72 -10 -7
-22 -26 -26 -43 -5 -22 -4 -26 4 -15 5 8 10 11 10 5 0 -5 3 -21 7 -35 3 -14 2
-22 -2 -18 -5 5 -20 -5 -34 -21 -14 -16 -35 -31 -46 -33 -11 -2 -19 -9 -18
-15 3 -13 -35 -29 -44 -19 -7 6 -71 -40 -94 -67 -9 -11 -29 -20 -45 -21 -16
-1 -34 -5 -41 -9 -6 -4 -19 -4 -27 -1 -9 4 -25 -1 -35 -10 -14 -13 -33 -15
-97 -11 -50 3 -83 10 -89 18 -6 8 -20 17 -33 21 -32 11 -37 -14 -13 -58 25
-44 26 -53 5 -73 -9 -10 -13 -25 -10 -37 3 -12 6 -31 6 -43 0 -19 4 -21 49
-16 44 4 50 2 56 -18 6 -18 1 -28 -26 -50 -32 -26 -34 -27 -41 -8 -6 14 -16
19 -37 17 -18 -1 -38 6 -51 17 -27 25 -53 73 -45 85 3 5 -8 5 -27 -1 -18 -5
-34 -9 -35 -9 -2 0 -3 9 -3 20 0 15 7 20 29 20 37 0 43 26 22 87 -22 63 -7 98
41 98 l37 0 -21 23 c-12 12 -17 22 -11 22 6 0 8 11 5 25 -5 27 -17 33 -26 13
-3 -7 -4 3 -1 22 3 19 2 29 -1 23 -9 -20 -32 -15 -45 10 -7 12 -17 25 -22 29
-8 4 -7 15 1 33 11 24 11 27 -3 22 -8 -4 -14 -1 -12 5 1 6 -4 13 -10 15 -7 3
-13 0 -13 -6 0 -6 -5 -11 -11 -11 -5 0 -7 5 -4 10 3 6 1 10 -4 10 -6 0 -11 7
-11 15 0 19 -34 19 -53 0 -17 -17 -28 -10 -20 13 4 15 3 15 -6 2 -8 -12 -13
-12 -23 -2 -17 17 -33 15 -18 -3 7 -8 18 -15 25 -15 14 0 40 -28 33 -35 -2 -2
-20 7 -40 20 l-36 25 -1 -267 c-1 -236 0 -264 14 -253 8 7 15 19 15 26 0 10
15 14 58 14 87 0 105 -7 97 -39 -9 -35 -31 -58 -58 -60 -54 -3 -72 -8 -70 -19
2 -6 -4 -9 -12 -6 -11 5 -13 2 -9 -11 4 -10 1 -21 -7 -25 -7 -5 -10 -12 -7
-16 4 -3 14 1 23 10 9 9 22 16 28 16 8 0 8 -3 -1 -8 -8 -5 -10 -16 -6 -28 4
-10 4 -16 -1 -12 -4 4 -14 3 -21 -3 -9 -8 -16 -3 -28 18 -13 25 -14 -6 -13
-322 l2 -350 45 -3 c50 -2 78 -7 100 -15 40 -14 48 -14 64 4 21 25 20 26 -8
33 -28 7 -41 33 -25 52 17 21 46 17 63 -8 9 -12 16 -17 16 -10 0 16 58 12 88
-6 12 -8 34 -12 48 -9 27 5 84 -12 84 -25 0 -4 -4 -10 -10 -13 -22 -13 -8 -23
43 -30 28 -4 57 -10 62 -14 6 -3 26 -11 45 -18 29 -10 39 -10 57 2 12 8 27 15
33 15 15 0 12 -30 -2 -31 -7 0 0 -5 15 -11 22 -8 32 -7 46 6 10 9 21 13 25 9
4 -5 13 -1 19 8 7 9 24 19 40 23 26 6 39 26 16 26 -6 0 -8 9 -4 20 4 12 2 20
-5 20 -7 0 -10 13 -8 32 3 37 35 51 50 24 5 -9 22 -16 39 -16 33 0 48 -22 30
-44 -17 -21 4 -24 84 -14 39 5 80 9 93 9 12 -1 22 3 22 8 0 6 9 12 19 16 10 3
22 17 25 30 7 28 35 34 32 8 -1 -15 8 -18 44 -19 25 -1 63 3 84 9 30 9 41 8
44 -1 2 -7 11 -12 20 -12 15 0 15 2 2 10 -11 7 -1 10 36 10 27 0 55 -5 62 -12
9 -9 22 -8 54 2 59 19 57 17 48 48 -9 32 3 62 25 62 22 0 55 -41 55 -67 0 -13
5 -23 10 -23 6 0 10 5 10 10 0 6 5 10 11 10 5 0 7 -4 4 -10 -8 -12 25 -1 45
15 29 24 57 26 91 6 20 -11 48 -18 69 -17 19 1 40 -1 45 -4 19 -14 58 -23 51
-12 -3 6 -2 13 4 17 5 3 10 -1 10 -10 0 -9 5 -13 10 -10 6 4 8 11 5 16 -4 5
-1 9 5 9 14 0 40 59 33 76 -2 7 0 15 6 19 6 3 11 17 11 30 0 18 -4 22 -20 18
-23 -6 -25 0 -10 28 8 13 7 25 -2 42 -7 12 -11 26 -10 30 4 14 -23 34 -56 42
-18 3 -30 11 -26 16 3 5 0 9 -5 9 -6 0 -11 6 -11 14 0 19 -31 28 -91 28 -54 0
-67 16 -50 60 8 21 5 31 -20 61 -18 22 -35 34 -44 30 -8 -3 -15 -1 -15 5 0 5
-9 12 -21 15 -16 4 -19 11 -14 26 4 13 2 21 -5 21 -6 0 -9 3 -7 8 3 4 -8 8
-24 9 -15 1 -31 -2 -34 -7 -4 -6 -17 -10 -31 -10 -19 0 -24 5 -24 24 0 13 7
29 15 36 8 7 13 16 10 20 -3 4 2 13 9 19 10 8 13 23 9 47 -5 30 -3 36 15 41
12 3 19 10 15 16 -4 6 2 8 15 5 15 -4 19 -2 15 9 -4 9 2 16 16 20 17 4 20 10
14 31 -4 19 -3 23 7 17 10 -6 12 -4 6 11 -4 10 -4 15 0 11 11 -11 39 35 39 63
0 22 4 25 31 23 26 -2 32 2 44 31 13 35 33 46 83 46 18 0 27 5 27 16 0 8 5 12
10 9 6 -3 10 -1 10 4 0 6 -4 11 -10 11 -14 0 -13 37 2 46 6 4 21 -5 35 -22 19
-24 31 -29 68 -30 25 -1 45 3 45 7 0 12 67 11 75 -1 3 -5 17 -10 30 -10 14 0
32 -11 44 -27 11 -16 21 -22 21 -15 0 6 5 12 11 12 5 0 7 -4 4 -10 -8 -13 -2
-13 30 2 14 6 25 17 25 25 0 7 11 13 25 13 20 0 25 -5 25 -26 0 -21 4 -25 20
-21 11 3 20 1 20 -4 0 -4 10 -14 22 -20 18 -10 24 -9 37 7 9 11 30 20 46 22
17 2 34 8 40 13 12 12 52 12 60 -1 13 -22 -6 -48 -40 -54 -27 -5 -35 -12 -35
-28 0 -17 3 -19 12 -10 9 9 14 8 22 -4 7 -8 28 -16 49 -17 22 -1 37 -7 37 -14
0 -7 5 -13 10 -13 6 0 10 11 10 25 0 16 6 25 15 25 9 0 15 -9 15 -24 0 -34 47
-42 78 -13 20 19 22 19 22 2 0 -10 -7 -23 -16 -30 -15 -11 -15 -12 5 -18 11
-3 19 -2 17 2 -3 4 0 13 5 21 8 12 12 12 16 2 4 -10 8 -10 21 0 8 7 16 12 16
10 1 -2 14 1 29 7 16 6 38 11 50 11 30 0 8 -19 -26 -22 -14 -1 -29 -8 -31 -15
-3 -7 -15 -13 -26 -13 -11 0 -20 -4 -20 -9 0 -6 12 -6 31 1 16 6 33 8 36 4 4
-3 -1 -6 -9 -6 -32 0 -50 -49 -34 -96 5 -16 2 -23 -13 -27 -24 -6 -22 -38 4
-47 16 -6 16 -7 1 -23 -15 -15 -16 -17 -2 -17 24 0 19 -13 -19 -53 -27 -28
-31 -36 -18 -39 9 -2 26 -21 37 -43 15 -29 30 -43 54 -50 27 -8 33 -14 29 -32
-2 -12 0 -20 4 -17 5 3 9 0 9 -5 0 -6 -4 -11 -10 -11 -6 0 -6 -9 0 -26 12 -31
12 -37 2 -30 -4 2 -6 -11 -4 -30 3 -20 10 -34 18 -34 7 0 16 -4 19 -10 4 -6
-1 -7 -12 -3 -15 5 -14 2 5 -19 25 -28 29 -43 8 -35 -27 11 -14 -56 14 -75 20
-14 21 -18 8 -18 -21 0 -24 -16 -5 -23 9 -4 9 -8 -2 -15 -12 -9 -12 -13 -2
-26 16 -19 51 -21 51 -3 0 7 -5 18 -12 25 -9 9 -9 12 0 12 7 0 12 7 12 15 0
21 23 19 53 -5 14 -11 49 -26 78 -34 45 -11 50 -14 31 -20 -13 -4 -40 -5 -61
-1 -24 4 -42 2 -46 -4 -3 -6 -16 -11 -28 -11 -13 0 -33 -7 -46 -16 -18 -13
-20 -18 -10 -25 12 -7 11 -11 -1 -19 -8 -5 -25 -10 -38 -10 -29 0 -19 -20 11
-20 22 -1 22 -1 3 -15 -19 -14 -18 -15 12 -15 18 0 32 -4 32 -10 0 -5 6 -10
14 -10 20 0 40 -26 26 -35 -8 -5 -5 -12 7 -21 17 -14 16 -15 -7 -13 -48 2 -60
-1 -60 -17 0 -13 -6 -15 -32 -9 -18 4 -44 8 -58 10 -14 1 -27 3 -30 4 -3 1
-15 4 -27 7 -16 3 -22 -2 -25 -19 -2 -12 -10 -22 -18 -22 -21 0 -32 -32 -20
-56 8 -15 7 -21 -3 -25 -17 -6 -74 -8 -101 -3 -10 2 -21 -2 -23 -9 -4 -9 2
-11 21 -6 21 5 25 3 21 -9 -5 -11 0 -13 21 -9 20 4 25 1 22 -9 -3 -8 -15 -13
-27 -12 -12 2 -24 -4 -26 -12 -16 -51 -16 -50 -25 -35 -8 12 -13 13 -30 2 -14
-8 -20 -9 -20 -1 0 7 -7 8 -17 4 -10 -4 -33 -10 -52 -14 -19 -3 -36 -12 -39
-20 -3 -10 1 -12 16 -9 14 4 22 0 25 -13 3 -11 1 -17 -3 -14 -5 3 -11 1 -15
-5 -3 -5 -17 -10 -30 -10 -15 0 -26 -7 -30 -19 -3 -11 -19 -25 -35 -32 -16 -8
-27 -16 -24 -20 2 -4 -2 -13 -9 -21 -7 -7 -13 -23 -14 -36 -1 -12 -9 -29 -17
-38 -28 -27 -18 -35 39 -30 60 5 76 -11 30 -32 -14 -6 -25 -17 -25 -25 0 -14
-50 -47 -73 -47 -25 0 -25 -22 1 -73 14 -26 22 -50 18 -54 -4 -4 -11 -2 -15 6
-7 11 -12 10 -30 -1 -18 -11 -23 -11 -31 2 -7 10 -5 18 5 26 14 10 14 12 -1
18 -29 11 -36 6 -32 -19 6 -27 -6 -41 -34 -44 -46 -3 -47 -4 -37 -29 12 -30
11 -31 -35 -39 l-36 -6 6 34 c5 26 4 31 -5 23 -7 -6 -14 -23 -15 -38 -3 -24
-20 -47 -83 -111 -13 -12 -23 -29 -23 -38 0 -9 -7 -20 -16 -25 -13 -7 -16 -19
-12 -56 5 -44 4 -46 -19 -46 -19 0 -24 -4 -21 -22 2 -17 -3 -24 -19 -26 -19
-3 -23 -10 -23 -38 0 -22 6 -37 15 -40 24 -9 18 -19 -17 -29 -24 -7 -38 -21
-51 -48 -20 -44 -17 -61 18 -99 14 -15 25 -33 25 -40 -1 -8 -5 -7 -14 5 -19
25 -56 22 -56 -4 0 -12 -8 -23 -19 -26 -18 -4 -29 -41 -34 -111 -1 -13 -10
-29 -20 -37 -14 -10 -16 -17 -7 -41 9 -23 8 -29 -5 -37 -15 -8 -14 -12 6 -33
l23 -24 -24 -23 c-14 -12 -28 -21 -32 -20 -5 2 -8 -8 -8 -22 0 -14 6 -25 13
-25 6 0 19 -5 27 -10 13 -8 12 -11 -5 -24 -16 -13 -18 -17 -6 -25 18 -12 7
-41 -19 -48 -25 -7 -26 -29 -1 -42 16 -9 18 -17 11 -46 -7 -30 -5 -38 13 -50
12 -8 28 -15 37 -15 8 0 2 -7 -14 -15 -35 -19 -36 -19 -36 3 0 14 -2 15 -10 2
-16 -24 -11 -40 11 -40 17 0 19 -4 13 -22 -4 -13 -11 -26 -16 -29 -25 -16 -53
-110 -29 -95 20 13 21 -28 1 -46 -19 -18 -19 -45 1 -33 5 4 9 1 9 -4 0 -6 -4
-11 -10 -11 -5 0 -10 -7 -10 -15 0 -8 -3 -15 -7 -15 -9 0 -43 -57 -43 -71 0
-5 7 -9 15 -9 8 0 15 -5 15 -11 0 -16 -36 -59 -44 -52 -3 3 -6 -10 -6 -30 0
-20 5 -39 10 -42 16 -10 12 -38 -5 -32 -8 4 -17 2 -20 -3 -3 -5 6 -12 20 -16
30 -7 30 -8 9 -39 -16 -24 -16 -25 10 -25 30 0 33 -8 9 -26 -11 -8 -13 -13 -5
-14 6 0 12 -4 12 -9 0 -5 -8 -7 -19 -4 -10 3 -22 0 -25 -5 -9 -15 4 -42 20
-42 8 0 13 -3 13 -7 -3 -20 2 -24 17 -12 13 10 17 10 24 -1 11 -17 4 -30 -16
-30 -8 0 -14 -9 -14 -20 0 -11 6 -19 13 -17 6 1 13 -5 13 -13 3 -28 16 -60 25
-60 5 0 18 -9 29 -20 11 -11 31 -20 45 -20 34 0 32 -11 -9 -48 -35 -32 -40
-72 -10 -72 8 0 14 -5 14 -11 0 -13 29 -38 44 -39 6 0 1 7 -10 15 -16 12 -17
14 -2 15 17 0 48 25 48 38 0 4 -4 13 -9 21 -8 12 -12 13 -26 1 -12 -10 -19
-10 -27 -2 -9 9 -7 17 8 34 11 13 27 40 37 61 17 38 39 52 30 18 -10 -37 14
-29 57 20 42 48 44 49 63 32 19 -17 20 -17 34 5 9 12 19 22 24 22 14 0 11 -28
-3 -34 -7 -3 -4 -4 7 -3 13 2 19 10 18 22 -1 20 -1 20 13 1 7 -11 17 -16 21
-13 4 4 1 13 -5 19 -9 9 -8 15 2 27 8 9 16 27 18 40 1 14 9 26 16 29 10 3 13
-6 11 -34 -3 -47 9 -104 22 -104 12 0 -1 118 -18 150 -7 14 -13 33 -13 43 0 9
-8 26 -17 38 -45 52 -94 98 -121 111 -26 13 -30 13 -40 -1 -11 -14 -12 -14 -9
4 2 18 -5 20 -81 23 -45 2 -98 -2 -117 -7 -19 -5 -35 -6 -35 -1 0 10 119 40
136 33 7 -3 21 3 30 12 16 16 18 16 33 -3 9 -11 32 -23 51 -27 19 -4 50 -18
70 -30 66 -42 80 -47 74 -30 -4 8 -1 15 5 15 6 0 11 -5 11 -10 0 -10 41 -31
48 -25 1 1 -11 39 -26 84 -25 69 -27 81 -13 78 9 -2 15 -9 13 -16 -1 -7 11
-39 28 -72 16 -33 30 -66 30 -75 0 -8 4 -13 9 -10 5 4 5 21 -1 43 -5 21 -9 45
-9 53 -1 27 -20 68 -36 74 -8 3 -11 11 -7 18 4 7 4 10 -1 6 -4 -4 -14 0 -23 9
-14 14 -17 14 -21 0 -5 -10 -12 -12 -28 -6 -30 11 -29 17 4 30 19 7 39 6 70
-3 37 -11 43 -16 43 -40 0 -15 5 -30 10 -33 6 -3 10 -14 10 -24 0 -10 6 -24
13 -30 10 -8 18 -4 35 18 l21 29 -25 5 c-21 4 -24 1 -18 -17 6 -21 6 -21 -10
-1 -8 11 -16 29 -16 40 0 11 -7 32 -14 47 -8 15 -11 30 -6 33 13 8 0 35 -17
35 -8 0 -12 4 -8 9 3 5 -3 16 -13 23 -19 13 -22 18 -22 38 0 5 -24 27 -52 49
-42 32 -55 37 -67 28 -12 -10 -14 -9 -9 4 7 17 -22 51 -52 62 -12 4 -11 6 3 6
16 1 70 -33 195 -123 26 -19 45 -42 49 -59 8 -39 18 -24 36 55 11 49 12 69 3
73 -8 3 -8 7 2 11 6 3 12 15 12 27 0 31 15 50 39 52 27 2 27 -15 1 -22 -26 -7
-26 -50 -1 -127 10 -32 17 -66 14 -77 -8 -30 7 -113 18 -102 7 7 6 27 -2 58
-10 38 -9 49 1 55 7 4 14 23 15 42 1 18 5 48 9 65 4 18 4 38 0 45 -4 6 -8 28
-8 47 -1 24 -5 35 -14 33 -8 -1 -11 2 -7 8 4 6 4 27 1 45 -5 26 -11 33 -24 29
-13 -5 -14 -4 -3 4 10 7 10 14 2 30 -13 25 -14 35 -2 27 20 -12 61 -99 61
-129 0 -17 7 -43 14 -58 8 -16 11 -28 5 -28 -5 0 -9 -11 -9 -25 0 -33 17 -32
49 4 14 15 33 31 41 34 8 4 -1 4 -20 1 l-35 -6 19 21 c19 21 19 21 -6 21 -38
0 -45 30 -13 57 24 21 24 23 6 23 -18 0 -19 3 -9 25 6 14 19 25 29 25 10 0 21
5 24 10 3 6 -4 10 -16 10 -20 0 -17 5 20 42 l42 43 -41 3 -41 3 32 22 c42 28
51 52 18 44 -23 -6 -23 -5 4 18 15 13 27 29 27 35 0 6 4 9 9 5 5 -3 16 4 24
15 7 11 16 17 20 14 3 -3 10 3 16 14 8 15 8 20 -2 18 -32 -7 -48 -20 -42 -34
4 -11 2 -12 -7 -5 -7 6 -28 10 -46 10 -37 0 -47 6 -37 24 6 8 10 7 17 -5 9
-16 11 -16 26 1 9 10 29 26 45 36 15 10 27 24 27 33 0 8 -5 12 -10 9 -21 -13
-70 -24 -65 -14 7 10 63 41 67 37 5 -4 97 62 110 80 15 20 73 62 86 62 13 0
62 40 62 51 0 5 -6 9 -13 9 -16 0 -127 -75 -145 -98 -12 -15 -14 -16 -25 -1
-22 29 -98 -16 -91 -54 l5 -22 -10 23 c-6 12 -15 22 -22 22 -6 0 16 20 50 45
34 25 67 45 74 45 8 0 8 3 1 8 -6 4 5 22 30 47 22 22 36 34 32 28 -9 -16 -4
-16 29 -1 19 9 22 14 13 21 -9 6 -7 7 5 3 25 -8 47 5 22 14 -15 5 -11 9 19 24
39 18 60 53 45 72 -6 8 -4 14 6 18 23 8 9 26 -21 26 -13 0 -24 5 -24 10 0 13
89 10 96 -2 3 -4 16 -8 28 -8 13 0 37 -7 52 -16 29 -15 28 -15 -29 -11 l-57 4
6 -36 c8 -45 8 -45 32 -32 13 7 22 7 30 -1 9 -9 12 -9 12 1 0 7 5 9 10 6 6 -3
10 -12 10 -20 0 -10 -9 -12 -35 -8 -28 4 -35 2 -35 -11 0 -9 -8 -16 -20 -16
-11 0 -20 -4 -20 -10 0 -13 27 -13 35 0 8 13 85 11 103 -3 6 -5 12 -6 12 -1 0
4 12 -3 26 -17 l27 -24 -6 23 c-3 12 -1 22 5 22 15 0 34 -23 35 -45 1 -11 4
-40 7 -65 6 -47 -13 -88 -33 -75 -18 10 -13 25 9 25 13 0 18 5 13 16 -3 8 -12
13 -20 10 -8 -3 -13 0 -11 7 5 24 -12 62 -33 75 -25 16 -37 9 -20 -12 9 -11 9
-15 -1 -18 -7 -3 -13 -20 -13 -41 0 -28 5 -38 23 -47 23 -10 23 -10 3 -31 -11
-12 -17 -27 -14 -35 3 -8 0 -14 -6 -14 -6 0 -11 -7 -11 -15 0 -8 7 -15 15 -15
9 0 12 -6 8 -16 -5 -14 0 -15 43 -10 80 12 87 12 91 -1 3 -7 -16 -14 -52 -18
-40 -5 -60 -13 -70 -28 -10 -15 -11 -23 -4 -28 6 -4 8 -16 4 -28 -7 -22 9 -30
21 -10 3 6 17 9 29 6 17 -3 25 1 28 15 3 12 11 16 21 12 23 -9 20 -19 -14 -47
-19 -16 -30 -35 -30 -51 0 -26 -14 -35 -25 -16 -10 16 -25 1 -25 -26 0 -17 5
-24 20 -24 13 0 20 -7 20 -20 0 -11 -4 -20 -10 -20 -5 0 -10 7 -10 17 0 14 -2
14 -21 -3 -11 -10 -16 -20 -10 -22 6 -2 11 -10 11 -17 0 -7 5 -15 11 -17 5 -2
7 -11 4 -21 -4 -9 -10 -15 -15 -12 -13 8 -33 -49 -31 -87 2 -29 -1 -38 -13
-38 -18 0 -35 -29 -29 -47 6 -18 28 -16 43 2 9 11 15 12 20 5 9 -14 40 -2 40
16 0 7 6 17 14 21 8 4 17 20 21 34 5 21 1 31 -19 47 -14 11 -26 23 -26 26 0
14 27 4 49 -19 26 -28 41 -31 59 -13 12 12 16 5 13 -32 0 -10 1 -11 5 -2 8 18
37 15 30 -3 -4 -12 0 -14 22 -10 15 3 21 2 15 -1 -17 -8 -16 -24 0 -24 8 0 22
-9 33 -21 17 -19 27 -21 109 -17 79 4 86 3 60 -8 -17 -7 -48 -13 -69 -14 -36
0 -38 -1 -21 -14 11 -8 16 -19 12 -30 -9 -22 -24 -20 -30 4 -3 11 -12 20 -20
20 -12 0 -15 -11 -12 -52 1 -29 3 -57 4 -63 1 -5 10 1 21 15 14 17 20 20 21
10 0 -8 2 -22 5 -30 14 -54 15 -70 5 -70 -6 0 -11 9 -11 20 0 11 -4 20 -9 20
-5 0 -8 -26 -7 -57 1 -54 0 -58 -21 -56 -16 2 -21 -2 -17 -12 5 -11 2 -13 -12
-8 -12 4 -15 3 -10 -5 4 -7 0 -15 -9 -18 -12 -5 -15 -14 -11 -30 5 -19 2 -24
-12 -24 -17 0 -19 -7 -16 -61 4 -67 16 -89 47 -89 11 0 25 -7 32 -16 11 -15
12 -15 10 5 -1 12 -11 28 -23 37 -12 8 -22 22 -22 30 0 8 -5 14 -11 14 -7 0 0
12 15 26 27 28 33 49 16 59 -12 8 -13 45 -1 45 17 0 30 -26 33 -65 2 -32 7
-39 21 -37 9 2 17 -2 17 -9 0 -17 31 -38 58 -39 19 0 22 -5 22 -35 0 -25 4
-35 13 -33 8 2 32 -16 55 -39 22 -24 45 -43 50 -43 5 0 17 -9 26 -19 23 -25
64 -35 82 -20 8 6 12 14 10 18 -2 3 15 6 37 7 33 0 49 7 75 32 33 30 35 31 63
17 34 -18 37 -40 9 -55 -15 -8 -18 -7 -15 3 3 7 -2 21 -10 32 -16 20 -16 20
-10 -2 4 -13 1 -25 -8 -30 -8 -4 -17 -19 -20 -32 -6 -25 -1 -31 50 -67 23 -16
68 -11 58 7 -4 5 -1 9 4 9 6 0 11 -7 11 -15 0 -8 8 -15 18 -14 10 0 12 3 4 6
-8 3 -5 11 10 24 20 16 21 20 8 29 -12 8 -10 10 9 10 23 0 24 1 6 20 -10 11
-14 21 -9 22 5 0 14 2 19 3 6 2 21 4 35 5 23 2 22 3 -8 11 -24 7 -32 15 -30
27 4 18 29 20 78 8 14 -3 19 -4 13 0 -21 10 -14 26 10 22 14 -2 21 -9 21 -21
-1 -9 2 -17 7 -17 5 0 9 5 9 10 0 6 8 10 17 10 13 0 14 -3 5 -12 -23 -23 -11
-37 16 -20 19 13 3 42 -23 42 -13 0 -25 4 -27 9 -5 13 -48 24 -48 12 0 -14
-27 -14 -35 -1 -3 6 2 13 12 17 23 9 33 23 33 51 0 12 5 22 10 22 20 0 79 66
78 86 -2 23 -38 31 -38 8 0 -19 -34 -18 -51 2 -10 13 -10 17 2 25 8 5 20 7 28
4 7 -3 20 3 28 12 10 13 16 15 19 6 3 -7 10 -13 15 -13 11 0 -8 41 -24 51 -5
4 0 10 12 14 11 3 21 13 21 20 0 16 30 9 42 -9 5 -8 13 -7 27 1 23 14 35 5 20
-14 -21 -25 -4 -13 24 17 16 17 22 27 13 24 -11 -4 -16 -1 -16 10 0 9 -8 16
-20 16 -12 0 -20 6 -19 13 4 32 -3 58 -20 74 -19 18 -37 83 -23 83 4 0 8 9 9
20 1 11 -2 20 -8 20 -5 0 -9 -7 -9 -15 0 -8 -7 -15 -15 -15 -8 0 -15 -4 -15
-10 0 -5 -5 -10 -11 -10 -7 0 -9 12 -4 36 4 22 3 34 -3 30 -6 -3 -8 2 -5 13 7
27 26 32 58 15 34 -18 41 -18 26 0 -8 9 -8 16 -2 20 7 5 7 15 0 33 -12 32 -7
48 22 63 17 10 20 9 16 -2 -2 -7 -10 -12 -16 -11 -20 5 -11 -36 9 -42 25 -8
53 12 46 32 -3 7 1 13 9 13 8 0 15 -4 15 -10 0 -5 5 -10 10 -10 6 0 10 11 10
25 0 29 16 33 25 6 3 -11 13 -22 22 -25 13 -5 14 -4 4 8 -21 25 -10 69 19 76
16 4 25 13 25 25 0 12 -9 21 -25 25 -14 4 -24 12 -22 18 1 7 3 17 5 24 1 7 -4
13 -10 14 -7 1 -17 2 -23 3 -5 0 -10 8 -10 16 0 12 4 13 19 5 27 -14 36 -13
22 3 -9 11 0 16 44 26 51 12 54 14 44 33 -16 30 4 46 24 18 8 -12 18 -17 21
-12 3 5 -1 15 -9 22 -8 7 -12 17 -8 23 11 18 14 75 4 81 -5 3 -6 21 -2 38 9
40 4 58 -16 58 -13 0 -13 -3 -3 -17 7 -10 1 -5 -14 10 -14 15 -26 23 -26 18 0
-6 -4 -11 -10 -11 -5 0 -10 12 -10 26 0 14 -4 23 -10 19 -5 -3 -7 -12 -3 -20
7 -19 3 -19 -36 1 -17 9 -38 13 -46 11 -7 -3 -16 1 -19 8 -4 12 -57 15 -86 4
-3 -1 -9 -1 -14 0 -4 1 -14 -6 -22 -16 -11 -14 -13 -15 -14 -3 0 8 -3 25 -6
38 -5 15 -2 22 9 22 8 0 21 9 28 20 18 26 85 36 93 14 9 -23 70 -13 74 12 2
10 7 23 12 27 10 12 80 16 80 6 0 -14 46 -10 59 4 8 10 7 17 -1 25 -6 6 -8 15
-4 19 4 4 12 1 17 -7 8 -11 12 -12 16 -2 2 6 11 12 19 12 9 0 13 4 10 9 -3 5
5 8 19 7 26 -1 34 -27 16 -55 -7 -11 -10 -9 -16 8 -8 26 -25 28 -25 2 0 -11
-3 -26 -6 -34 -8 -21 41 -28 60 -8 15 14 16 13 16 -11 0 -19 7 -29 22 -34 19
-6 20 -7 4 -16 -10 -5 -20 -7 -23 -4 -4 3 -11 2 -17 -3 -16 -13 -86 -31 -86
-22 0 4 -14 8 -30 8 -26 0 -29 -3 -24 -21 8 -27 34 -56 49 -56 24 0 78 -33 82
-51 3 -11 9 -19 13 -19 5 0 4 15 -1 32 -5 18 -9 44 -9 58 1 23 2 23 20 -10
l18 -35 4 40 c2 27 8 41 20 43 14 3 16 -4 12 -40 l-4 -43 12 31 c8 19 18 29
27 26 10 -3 11 3 6 29 -4 19 -10 36 -14 39 -9 8 -9 110 1 110 5 0 11 -7 14
-15 7 -17 34 -21 34 -5 0 6 -12 22 -27 36 -25 22 -26 24 -6 19 12 -3 24 -1 28
4 9 15 -45 102 -57 95 -7 -5 -9 2 -4 21 5 19 3 31 -6 36 -18 11 -6 19 18 13
15 -4 21 -14 22 -36 0 -17 6 -36 13 -42 9 -8 10 -3 6 22 -4 17 -3 32 2 32 16
0 36 -33 34 -54 -3 -20 -2 -20 6 -1 6 16 16 19 44 17 28 -3 37 0 37 12 0 9 1
19 3 23 3 8 -60 44 -73 40 -5 -1 -16 7 -24 18 -8 11 -16 15 -16 8 0 -15 -70
53 -70 68 0 6 4 7 10 4 6 -3 10 1 10 9 0 8 -4 18 -10 21 -17 10 -11 25 8 19
13 -4 12 -1 -5 14 -24 21 -30 47 -14 56 16 11 18 55 4 111 l-14 56 30 35 c38
42 40 82 9 144 -29 57 -103 101 -155 93 -19 -3 -39 0 -48 7 -16 14 -95 4 -95
-11 0 -6 -15 -16 -33 -24 -18 -7 -45 -25 -60 -39 -28 -26 -28 -29 -23 -96 5
-56 3 -70 -8 -70 -23 0 -29 -31 -6 -37 18 -5 25 -22 21 -47 -1 -5 5 -3 14 4
13 11 18 11 28 1 9 -10 9 -15 -4 -23 -14 -10 -14 -15 6 -55 14 -29 19 -57 16
-81 -3 -29 -5 -33 -11 -17 -7 19 -7 19 -15 -4 -5 -17 -3 -28 7 -35 20 -15 7
-51 -35 -93 -17 -18 -27 -33 -21 -33 5 0 -2 -6 -16 -13 -14 -7 -26 -22 -28
-33 -2 -16 -11 -20 -54 -22 -46 -1 -55 2 -80 30 -15 17 -28 38 -28 45 0 7 -3
13 -7 13 -13 0 -32 49 -22 56 5 3 9 10 9 15 0 6 -7 3 -16 -5 -16 -17 -35 -21
-33 -8 5 28 -3 62 -12 57 -6 -4 -13 3 -16 15 -8 31 -76 61 -113 50 -34 -10
-40 -5 -39 29 0 14 3 20 6 14 10 -25 18 -12 19 30 1 26 -5 52 -16 67 -10 14
-21 40 -25 58 -3 17 -10 32 -15 32 -4 0 -13 14 -20 31 -9 20 -16 27 -23 20 -7
-7 -6 -15 1 -24 7 -8 9 -17 5 -20 -3 -4 -1 -7 5 -7 7 0 12 -14 12 -32 -1 -30
-2 -31 -14 -15 -9 11 -27 17 -56 17 l-42 0 17 26 17 26 -34 -4 c-26 -2 -32 1
-30 13 1 12 -5 16 -24 15 -23 -1 -27 3 -29 29 -1 17 -5 38 -9 48 -6 13 -3 17
12 17 34 0 34 17 1 24 -48 9 -55 8 -88 -20 -20 -17 -29 -20 -25 -10 5 12 2 15
-10 10 -9 -3 -16 -11 -16 -16 0 -7 -5 -6 -14 1 -7 6 -21 9 -30 5 -11 -4 -16
-1 -16 10 0 10 -6 13 -15 10 -8 -4 -15 -1 -15 6 0 6 5 8 10 5 6 -3 13 1 16 10
5 13 9 14 15 4 13 -22 19 -6 21 64 2 37 6 67 9 67 11 0 16 56 7 80 -6 18 -13
21 -33 16 -28 -7 -33 10 -14 46 15 28 5 33 -25 13 -14 -9 -29 -14 -35 -11 -5
3 -11 2 -13 -4 -1 -5 -20 -11 -40 -14 -20 -2 -50 -14 -67 -27 -17 -12 -34 -20
-37 -16 -9 9 15 37 31 37 7 0 18 7 25 15 10 12 6 13 -23 8 -37 -6 -61 12 -36
28 8 4 16 4 20 -3 4 -7 9 -7 13 0 10 17 -34 25 -60 12 -12 -7 -31 -10 -40 -6
-15 6 -13 10 14 26 18 11 37 20 43 20 6 0 8 7 5 16 -4 11 -1 14 13 9 11 -3 24
1 32 12 12 15 12 16 -3 10 -21 -7 -21 -7 -8 28 8 20 15 26 30 22 11 -3 18 -1
15 3 -3 5 5 16 17 25 23 16 23 16 -7 9 -16 -4 -38 -11 -48 -16 -10 -5 -21 -7
-24 -5 -3 3 25 23 62 44 49 28 65 42 61 55 -2 10 0 18 6 18 5 0 6 5 2 11 -11
19 15 26 51 15 23 -7 35 -17 35 -29 0 -11 9 -21 19 -24 11 -3 22 -11 25 -19 3
-8 17 -14 30 -14 18 0 24 -4 20 -15 -5 -11 0 -13 24 -5 29 8 88 64 124 119 26
38 53 134 39 139 -6 2 -11 8 -11 13 0 4 8 5 17 2 17 -7 17 -6 -2 40 -4 8 9 21
35 33 38 18 54 37 28 32 -9 -2 -12 7 -10 24 4 37 -14 44 -34 13 -11 -17 -20
-23 -27 -16 -7 7 -4 19 7 36 10 15 15 33 12 40 -3 8 -1 28 4 46 8 27 6 35 -10
49 -15 13 -19 25 -14 49 5 24 3 31 -9 31 -18 0 -49 39 -41 52 3 4 0 8 -6 8 -6
0 -17 -14 -24 -30 -14 -34 -29 -29 -20 6 4 16 1 26 -9 30 -8 3 -17 18 -20 34
-5 24 -12 29 -47 35 -22 4 -40 11 -40 16 0 5 -6 9 -13 9 -7 0 -28 14 -46 32
-26 25 -34 29 -41 18 -7 -11 -11 -9 -18 10 -12 32 -48 64 -61 55 -6 -3 -14 0
-17 9 -8 21 -34 28 -51 14 -12 -10 -18 -9 -29 7 -7 11 -28 40 -46 64 l-33 45
-3 -39 c-2 -26 3 -47 15 -64 34 -46 35 -57 3 -21 -39 43 -54 70 -41 70 16 0 1
29 -22 41 -18 10 -19 9 -14 -10 3 -11 1 -21 -4 -21 -5 0 -2 -11 7 -25 27 -41
1 -29 -43 20 -22 25 -34 45 -27 45 18 0 18 14 -1 30 -8 7 -13 16 -10 20 3 5 0
12 -6 15 -5 4 -8 13 -5 21 3 9 -3 18 -17 23 -12 5 -29 21 -36 35 -8 14 -20 26
-26 26 -7 0 -19 9 -26 21 -8 11 -21 21 -29 23 -24 4 -70 29 -70 37 0 4 -19 10
-42 14 -43 8 -104 58 -92 76 3 5 1 9 -5 9 -5 0 -25 16 -44 35 -19 19 -41 35
-51 35 -9 0 -15 3 -15 8 4 24 -3 40 -20 45 -15 3 -18 11 -14 27 4 15 -1 26
-16 36 -11 8 -21 22 -21 30 0 23 -31 64 -48 64 -8 0 -24 8 -34 17 -22 19 -25
20 -253 27 l-160 5 -29 -29z m-715 -460 c24 -13 24 -25 0 -57 -11 -13 -17 -32
-14 -41 4 -13 3 -14 -5 -3 -7 10 -11 10 -17 1 -4 -7 -2 -15 4 -19 6 -4 9 -15
6 -23 -4 -11 1 -18 14 -23 25 -7 27 -20 6 -29 -10 -3 -15 1 -16 12 -1 15 -2
15 -6 1 -4 -18 -50 -32 -58 -18 -3 4 -19 11 -36 14 -25 6 -36 2 -60 -21 -25
-24 -31 -26 -39 -14 -6 8 -7 22 -4 30 4 8 9 26 12 40 7 38 22 53 38 39 10 -8
14 -8 14 0 0 6 -9 16 -20 23 -11 7 -20 17 -20 22 0 5 2 7 6 4 3 -3 25 0 50 8
24 7 44 10 44 6 0 -4 10 8 21 26 22 33 46 40 80 22z m-833 -562 c33 -43 39
-62 22 -73 -17 -11 -11 -43 10 -50 25 -8 25 -16 0 -43 -32 -34 -51 -25 -57 28
-2 14 -17 37 -33 51 -17 14 -30 36 -31 50 0 13 -3 18 -6 12 -2 -7 -13 -13 -24
-13 -14 0 -21 -9 -25 -30 -7 -32 -21 -39 -30 -15 -16 42 21 83 69 76 11 -1 17
4 17 18 0 20 12 29 40 30 9 1 30 -18 48 -41z m2899 -480 c64 -32 79 -48 44
-48 -11 0 -23 -5 -26 -11 -4 -5 -14 -9 -23 -7 -10 2 -25 -7 -35 -19 -10 -13
-25 -23 -33 -23 -11 0 -13 -6 -9 -20 5 -15 0 -21 -20 -26 -14 -3 -29 -3 -33 0
-9 9 20 27 35 21 7 -2 10 2 6 11 -3 7 -11 14 -19 14 -17 0 -18 12 -2 28 7 7 8
12 3 12 -5 0 0 6 10 14 18 13 17 15 -20 21 -55 9 -65 13 -65 24 0 5 15 7 34 4
28 -4 34 -2 39 16 7 30 39 27 114 -11z m1159 -1353 c10 -8 28 -15 39 -15 31 0
148 -45 153 -58 5 -15 -33 -24 -120 -25 -62 -2 -78 2 -105 21 -18 13 -33 32
-33 42 0 49 28 64 66 35z"/>
<path d="M11405 8335 c-5 -2 -80 -11 -165 -19 -85 -9 -283 -29 -440 -46 -157
-17 -346 -37 -420 -45 -74 -8 -202 -21 -285 -30 -82 -9 -190 -20 -240 -25 -49
-5 -155 -17 -235 -25 -80 -9 -273 -29 -430 -45 -157 -16 -348 -37 -425 -45
-77 -9 -203 -22 -280 -30 -387 -39 -461 -47 -590 -60 -134 -14 -299 -32 -507
-54 -54 -6 -142 -16 -195 -21 -53 -6 -98 -11 -99 -13 -1 -1 13 -139 31 -307
19 -168 38 -347 44 -399 5 -51 12 -96 15 -99 3 -3 38 12 78 33 40 21 109 53
153 72 112 48 246 139 193 132 -7 -1 -34 -1 -60 0 -37 1 -48 5 -48 17 0 19 39
53 61 54 9 0 22 7 29 14 11 14 36 21 185 47 51 9 64 14 50 20 -15 6 -11 8 17
8 20 1 39 5 43 10 3 6 28 7 57 4 36 -4 49 -3 44 5 -5 8 10 11 46 11 63 -1 124
9 158 26 36 18 93 35 118 35 11 0 24 5 27 10 4 6 14 8 24 5 10 -3 20 3 26 17
6 12 17 23 25 26 13 3 13 2 0 -7 -13 -9 -13 -11 2 -11 9 0 18 6 21 13 2 6 8 8
13 4 5 -5 0 -15 -11 -24 -17 -14 -18 -15 -2 -9 10 3 23 6 28 6 6 0 8 4 5 8 -2
4 4 13 14 20 14 8 21 8 26 1 3 -6 9 -7 13 -3 3 5 17 15 30 22 19 11 22 11 15
0 -6 -11 -5 -11 9 0 9 8 19 22 22 32 4 11 25 25 53 34 26 9 60 29 75 46 16 16
36 30 45 31 10 0 26 3 37 6 11 3 32 5 48 6 15 0 27 4 27 9 0 19 45 68 62 68
10 0 18 5 18 11 0 35 80 51 116 25 21 -16 35 -14 139 19 158 52 468 71 834 53
113 -6 152 -12 181 -27 29 -15 46 -18 74 -11 21 4 36 4 36 -1 0 -5 -6 -9 -12
-10 -7 0 -1 -5 15 -11 15 -5 27 -14 27 -19 0 -5 9 -9 20 -9 21 0 116 -37 181
-70 20 -10 50 -21 67 -23 17 -3 44 -14 59 -25 15 -10 44 -25 63 -31 44 -16 93
-44 97 -57 2 -5 -7 -14 -19 -19 -13 -6 -29 -22 -36 -37 -9 -20 -21 -28 -38
-28 -21 0 -23 -3 -15 -18 12 -22 -3 -42 -31 -42 -12 0 -18 -8 -18 -24 0 -18
-8 -27 -29 -34 -33 -12 -41 -7 -41 20 0 10 -4 18 -10 18 -5 0 -10 11 -10 25 0
33 -18 32 -22 -1 -2 -22 -9 -27 -36 -29 -24 -2 -32 1 -28 10 7 19 -16 35 -42
28 -17 -4 -22 -1 -22 15 0 19 -5 20 -52 17 -46 -4 -67 -15 -68 -37 0 -5 7 -8
16 -8 9 0 27 -9 40 -19 l24 -19 -50 -36 c-27 -20 -50 -40 -50 -45 0 -20 22
-22 46 -6 24 16 27 15 40 -2 16 -20 11 -67 -8 -90 -7 -9 -21 -12 -35 -8 -16 4
-23 1 -23 -9 0 -8 -8 -14 -17 -14 -10 1 -35 -3 -55 -7 -40 -8 -50 3 -22 26 14
11 14 13 -1 22 -9 5 -38 6 -66 2 -27 -4 -49 -4 -49 -1 0 3 10 16 22 28 17 17
19 23 7 26 -8 2 -19 11 -26 19 -17 21 -89 36 -116 23 l-22 -11 23 17 c29 22
31 74 3 74 -11 0 -22 -9 -26 -19 -3 -11 -14 -22 -23 -25 -27 -9 -122 -104
-122 -121 0 -9 -7 -23 -15 -31 -8 -9 -15 -20 -15 -25 0 -12 77 -12 85 1 3 6
10 10 16 10 5 0 9 -4 9 -10 0 -5 -7 -10 -16 -10 -8 0 -12 -4 -9 -10 3 -5 17
-10 31 -10 15 0 24 -6 24 -15 0 -8 9 -15 20 -15 13 0 20 -7 20 -18 0 -10 5
-23 11 -29 16 -16 1 -71 -22 -83 -10 -6 -19 -16 -19 -22 0 -9 3 -9 11 -1 9 9
18 8 35 -4 21 -14 26 -13 51 5 91 63 177 13 217 -129 34 -118 63 -422 46 -475
-12 -34 -42 -60 -60 -49 -5 3 -11 1 -15 -5 -3 -5 -14 -10 -23 -10 -16 1 -16 2
1 14 23 18 22 26 -4 26 -12 0 -30 -9 -40 -21 -10 -11 -23 -18 -29 -14 -5 3
-14 -4 -18 -16 -6 -15 -11 -19 -16 -11 -4 7 -12 10 -17 7 -5 -4 -9 1 -9 10 0
15 -2 15 -22 1 -15 -11 -25 -12 -34 -5 -9 7 -16 4 -27 -11 -13 -19 -47 -19
-47 0 0 4 -9 17 -19 29 -11 12 -26 32 -35 44 -13 19 -15 20 -15 4 -1 -10 -7
-17 -13 -16 -7 2 -36 -1 -65 -5 -41 -6 -51 -11 -46 -23 5 -13 2 -15 -15 -11
-12 4 -22 2 -22 -3 0 -5 -9 -9 -20 -9 -12 0 -17 -5 -14 -14 5 -14 -23 -26 -63
-26 -16 0 -21 -4 -17 -15 4 -10 0 -15 -11 -15 -9 0 -25 -5 -36 -11 -20 -10
-20 -11 -3 -24 16 -11 21 -10 39 9 19 21 47 37 70 41 6 1 28 9 49 19 21 10 47
15 58 13 11 -3 18 0 18 9 0 8 4 14 10 14 5 0 18 9 28 21 18 18 21 19 36 4 9
-9 20 -14 25 -10 13 7 41 -34 34 -51 -8 -21 -23 -6 -23 24 -1 25 -1 26 -12 7
-15 -27 -27 -33 -49 -28 -14 4 -19 0 -19 -17 0 -17 -5 -21 -27 -18 -15 2 -28
-2 -30 -9 -3 -8 4 -13 16 -13 12 0 24 -7 27 -15 4 -10 14 -13 31 -9 16 4 28 2
34 -7 7 -11 11 -10 24 6 12 14 18 16 21 8 10 -23 24 -13 24 16 0 17 5 33 11
37 8 5 10 -5 7 -32 -3 -28 0 -42 11 -51 14 -11 14 -12 -1 -13 -16 0 -27 -30
-13 -30 17 0 65 47 66 64 0 20 1 20 8 2 5 -14 10 -16 15 -7 9 14 -22 53 -35
45 -5 -3 -9 -1 -9 4 0 5 11 12 25 14 21 4 25 1 25 -19 0 -14 4 -21 10 -18 6 3
10 -2 10 -12 0 -11 6 -28 14 -38 11 -15 17 -17 28 -7 22 18 28 4 12 -26 -8
-15 -14 -34 -14 -43 0 -9 -17 -27 -37 -40 -34 -22 -39 -30 -45 -79 -4 -30 -3
-58 1 -63 4 -4 20 9 37 29 38 47 53 63 98 97 21 16 42 39 47 50 9 22 9 22 5
-1 -4 -19 -1 -22 15 -17 10 4 19 2 19 -4 0 -5 -9 -13 -21 -16 -14 -5 -17 -10
-10 -19 7 -9 7 -16 -1 -24 -9 -9 -8 -12 5 -12 20 0 14 -21 -21 -67 -13 -18
-22 -40 -18 -48 3 -9 -1 -18 -9 -21 -23 -9 -18 -26 8 -22 12 2 26 13 32 26 5
12 16 22 23 22 8 0 10 8 7 23 -4 16 0 29 14 41 12 11 21 25 21 31 0 7 7 18 15
25 9 7 14 22 13 34 -2 16 3 22 22 25 14 1 28 8 32 15 4 6 8 -1 8 -16 0 -17 -8
-33 -20 -40 -20 -13 -28 -48 -11 -48 9 0 25 30 23 43 -1 4 2 7 6 7 5 0 15 12
22 28 8 16 14 22 17 14 3 -7 -3 -22 -12 -32 -9 -10 -14 -23 -11 -28 3 -5 -3
-17 -14 -27 -11 -10 -20 -22 -20 -27 0 -16 35 -8 48 12 14 23 44 28 36 5 -4
-8 -12 -15 -20 -15 -8 0 -14 -7 -14 -15 0 -32 78 6 93 45 3 9 6 3 6 -12 1 -16
6 -28 13 -28 7 0 -3 -11 -22 -25 -19 -14 -39 -25 -44 -25 -14 0 -96 -78 -96
-91 0 -5 8 -9 18 -9 13 0 10 -6 -13 -25 -16 -13 -36 -24 -42 -25 -16 0 -17
-16 -2 -25 5 -4 21 5 34 19 13 14 29 26 35 26 5 0 10 6 10 13 0 8 8 21 19 31
15 13 24 14 46 6 23 -9 26 -8 21 5 -5 13 -1 15 17 9 12 -3 24 -8 26 -10 2 -2
-29 -35 -68 -73 -39 -39 -71 -75 -71 -80 0 -5 6 -14 14 -20 11 -10 19 -7 35
10 12 13 21 26 21 30 0 5 25 16 55 25 30 10 52 21 49 26 -3 4 7 8 23 8 20 0
24 -3 14 -9 -11 -7 -7 -13 15 -25 l29 -17 -45 7 c-36 5 -43 3 -33 -6 6 -7 22
-13 34 -14 22 -1 41 -26 19 -26 -7 0 -9 -8 -5 -20 5 -14 2 -20 -9 -20 -20 0
-21 -26 -1 -34 8 -3 22 -3 30 0 8 4 15 1 15 -5 0 -6 -8 -11 -17 -12 -11 0 -3
-7 17 -16 30 -13 32 -16 16 -25 -10 -5 -26 -8 -37 -5 -23 6 -24 -1 -4 -30 14
-20 14 -23 -2 -32 -10 -6 -13 -11 -7 -11 7 0 14 -8 18 -17 3 -10 10 -28 16
-41 9 -20 7 -23 -9 -17 -11 3 -22 1 -26 -5 -3 -6 -11 -8 -16 -5 -5 4 -9 1 -9
-4 0 -6 6 -11 14 -11 14 0 26 -21 26 -46 0 -8 -4 -14 -10 -14 -5 0 -10 6 -10
14 0 7 -7 20 -16 27 -15 12 -16 11 -9 -10 5 -16 4 -21 -4 -17 -7 5 -11 -2 -11
-18 0 -14 -5 -26 -11 -26 -6 0 -9 6 -6 14 3 7 0 19 -6 25 -21 21 -26 11 -10
-20 8 -16 13 -31 12 -32 -2 -1 -19 -12 -36 -25 -26 -18 -33 -20 -33 -7 0 19
-19 20 -26 1 -7 -17 -33 -10 -51 13 -16 21 -18 -2 -2 -31 18 -33 6 -29 -41 12
-25 22 -48 36 -53 31 -11 -11 22 -64 56 -91 15 -12 27 -27 27 -35 0 -22 53
-49 100 -51 67 -3 143 41 232 134 23 23 46 42 53 42 7 0 20 9 30 20 10 12 25
18 32 16 7 -3 28 10 47 28 36 34 40 62 10 87 -8 6 -14 16 -14 22 0 7 4 7 12
-1 16 -16 38 -15 38 1 0 6 8 21 17 32 15 19 15 19 8 -10 -17 -71 -17 -78 0
-71 9 3 20 6 23 6 4 0 1 4 -6 8 -10 7 -7 17 12 45 15 21 20 37 14 39 -18 6 0
54 33 93 18 20 29 39 25 43 -4 3 -11 0 -16 -8 -7 -11 -11 -11 -24 -1 -13 11
-9 18 25 53 21 22 39 44 39 48 0 14 -30 40 -45 40 -8 0 -22 14 -32 30 -9 17
-21 30 -25 30 -4 0 -8 9 -8 21 0 11 -14 33 -31 48 -26 24 -29 32 -20 49 6 10
7 22 4 26 -3 3 -2 6 4 6 17 0 23 38 7 44 -7 3 -16 1 -18 -3 -8 -13 -129 -8
-133 5 -2 7 38 18 113 29 191 29 447 13 544 -34 35 -18 70 -17 70 0 0 5 -6 11
-12 13 -7 2 -38 11 -68 20 -71 21 -167 39 -204 38 -27 -1 -28 0 -12 17 15 16
14 17 -12 13 l-27 -4 1 60 c1 33 5 65 8 71 4 6 0 11 -8 11 -16 0 -21 17 -17
55 1 11 -3 38 -8 60 -13 48 -20 93 -26 160 -7 82 -41 195 -57 195 -4 0 -14 16
-22 35 -8 19 -22 35 -30 35 -19 0 -56 47 -56 71 0 9 -6 24 -12 31 -7 7 -14 20
-16 28 -2 8 -8 17 -13 18 -5 2 -9 12 -9 23 0 10 -4 19 -10 19 -5 0 -10 16 -10
35 0 28 4 35 19 35 11 0 26 9 34 19 16 24 80 29 147 13 65 -16 184 -72 201
-95 3 -5 15 -10 25 -11 13 -2 18 -10 17 -25 -3 -24 12 -29 21 -6 7 19 36 20
36 1 0 -8 -4 -26 -10 -40 -15 -40 8 -42 27 -2 18 40 32 46 40 18 3 -14 11 -18
29 -14 13 2 24 2 24 -2 0 -7 -36 -91 -52 -120 -6 -12 -6 -22 0 -28 7 -7 16 0
27 22 9 17 14 34 11 37 -3 3 7 21 21 40 l27 35 18 -22 c36 -44 37 -75 -26 515
-14 127 -41 377 -60 557 -20 180 -36 332 -36 338 0 10 -15 12 -35 5z m-1139
-186 c4 -6 20 -8 39 -5 38 7 65 -1 65 -19 0 -8 7 -21 16 -29 23 -23 8 -36 -41
-36 -24 0 -47 -4 -50 -10 -3 -5 -36 -10 -73 -10 l-67 0 2 42 c1 24 2 46 2 49
1 7 58 26 83 28 9 1 20 -4 24 -10z m492 -1136 c-13 -7 -32 -13 -43 -13 -20 -1
-20 -1 -1 -15 11 -8 31 -15 45 -15 l25 0 -24 -22 -23 -22 28 -8 c21 -5 32 -3
41 10 12 16 13 15 14 -5 0 -12 -4 -25 -10 -28 -18 -11 -10 -26 10 -20 22 7 23
5 14 -19 -6 -16 -54 -23 -54 -8 0 5 -11 15 -25 22 -14 7 -25 19 -25 27 0 7 -9
13 -19 13 -10 0 -22 7 -25 15 -3 9 -21 22 -40 30 -50 21 -64 51 -37 79 22 23
22 23 96 7 69 -14 73 -16 53 -28z m-85 -250 c18 -10 34 -19 36 -20 12 -8 -79
-72 -109 -78 -19 -4 -47 -13 -63 -22 -22 -11 -35 -12 -59 -4 -17 6 -42 11 -55
11 -20 0 -23 4 -18 20 6 18 -3 25 -27 21 -8 -1 -10 5 -12 32 -1 8 21 12 74 13
50 1 92 9 125 22 62 26 69 26 108 5z m32 -93 c3 -5 22 -9 41 -8 19 1 40 -4 46
-10 6 -6 13 -44 15 -84 2 -40 4 -92 5 -115 3 -56 -11 -69 -51 -49 -17 9 -31
23 -31 32 0 8 -11 19 -25 24 -14 5 -25 15 -25 23 0 7 -9 30 -20 52 -27 52 -25
77 5 103 14 13 23 27 20 32 -3 6 -2 10 4 10 5 0 13 -4 16 -10z m170 -350 c6 0
39 -27 73 -60 34 -33 66 -60 72 -60 6 0 18 -4 28 -9 39 -21 91 -41 105 -41 9
0 19 -5 23 -12 5 -8 -12 -9 -67 -4 -118 11 -128 13 -142 25 -8 6 -18 7 -22 3
-5 -4 -6 0 -2 9 4 13 1 16 -15 11 -18 -4 -19 -2 -9 15 20 38 -20 46 -63 12
l-26 -20 0 21 c0 12 -4 19 -8 16 -4 -2 -14 -1 -22 4 -11 7 -12 12 -3 21 9 9 9
16 0 31 -10 16 -9 22 8 34 11 8 29 13 40 10 11 -3 25 -6 30 -6z m-47 -370 c7
0 11 -4 8 -9 -3 -5 12 -11 33 -15 30 -5 47 -16 72 -48 20 -25 29 -43 22 -45
-7 -3 -9 -17 -6 -39 4 -23 2 -34 -7 -34 -7 0 -10 -7 -7 -15 5 -11 -1 -14 -31
-10 -48 5 -100 21 -119 37 -8 7 -22 13 -30 14 -30 5 -26 14 6 14 18 0 30 4 26
10 -3 5 -12 7 -20 3 -18 -6 -19 1 -5 28 9 15 7 19 -7 20 -16 0 -16 1 2 9 l20
9 -20 1 c-11 1 -14 4 -7 7 17 7 15 21 -5 26 -10 3 -4 5 14 6 31 1 59 21 29 21
-8 0 -18 5 -22 12 -5 8 0 9 17 5 13 -4 30 -7 37 -7z"/>
<path d="M5320 8044 c-41 -8 -90 -12 -108 -9 -27 5 -38 1 -62 -24 -30 -30 -41
-83 -20 -96 16 -10 12 -127 -5 -149 -19 -26 -19 -47 0 -40 19 8 19 -1 -2 -37
-17 -29 -33 -38 -33 -19 0 14 -46 13 -73 -2 -34 -18 -77 -68 -77 -89 0 -24
-15 -25 -30 -1 -10 15 -11 15 -5 -3 15 -42 18 -98 7 -91 -7 4 -12 14 -12 22 0
8 -9 31 -20 51 -20 38 -27 89 -11 79 13 -9 19 27 13 79 -5 49 -22 44 -22 -7 0
-19 -5 -28 -16 -28 -13 0 -15 -7 -11 -36 5 -32 4 -36 -13 -31 -11 3 -22 2 -25
-3 -3 -4 4 -10 15 -13 11 -3 20 -10 20 -16 0 -14 -17 -14 -25 -1 -10 16 -25 1
-25 -26 0 -13 -5 -24 -10 -24 -6 0 -8 -11 -4 -25 7 -29 -2 -32 -29 -7 -19 16
-19 16 -13 -5 5 -15 3 -23 -4 -23 -7 0 -9 -8 -5 -19 4 -12 0 -21 -12 -25 -10
-4 -19 -2 -21 3 -6 18 -19 13 -25 -9 -6 -25 9 -36 28 -20 12 10 15 9 15 -4 0
-9 -4 -16 -10 -16 -5 0 -10 -4 -10 -10 0 -5 7 -10 16 -10 11 0 14 -5 10 -16
-4 -12 -1 -14 14 -9 14 5 20 2 20 -9 0 -9 8 -16 19 -16 10 0 21 -7 25 -15 3
-8 16 -15 30 -15 15 0 25 -7 29 -20 3 -12 14 -20 26 -20 12 0 21 -6 21 -15 0
-8 9 -15 19 -15 11 0 26 7 35 15 22 22 25 19 19 -17 -4 -30 -3 -33 21 -33 14
0 26 6 26 13 0 6 7 12 15 12 8 0 15 -4 15 -10 0 -5 -6 -10 -12 -10 -7 0 -2 -8
11 -17 23 -16 25 -15 48 13 16 20 23 24 23 13 0 -9 6 -17 13 -16 52 2 59 -2
52 -33 -6 -28 -5 -30 24 -30 37 0 43 -26 9 -39 l-22 -8 22 -12 c19 -10 21 -15
10 -34 -6 -12 -18 -28 -27 -35 -14 -11 -13 -12 7 -7 15 4 24 1 28 -9 7 -19 26
-22 22 -3 -4 25 14 57 33 57 11 0 17 -4 14 -10 -9 -15 12 -48 36 -55 16 -5 20
-13 16 -31 -4 -24 26 -54 55 -54 22 0 89 75 77 87 -7 7 -7 13 -1 17 15 9 -16
66 -35 66 -9 0 -13 -3 -10 -7 11 -10 -23 -42 -39 -36 -37 14 5 65 47 56 18 -3
29 -1 29 6 0 6 -5 11 -10 11 -6 0 -5 8 2 20 11 17 10 22 -1 30 -13 7 -13 11 0
26 11 13 11 18 1 22 -8 2 -4 11 13 24 14 11 25 25 25 33 0 7 7 18 15 25 14 11
13 14 -1 25 -16 11 -16 12 0 18 11 4 16 15 15 29 -2 13 0 28 3 34 15 23 30
101 30 148 -1 27 3 58 9 67 6 12 5 20 -1 24 -6 4 -8 21 -4 41 5 27 3 34 -10
34 -10 0 -16 9 -16 25 0 17 -8 29 -22 36 -35 15 -49 56 -54 149 -4 62 -11 97
-28 130 -13 24 -27 45 -32 46 -5 1 -43 -4 -84 -12z"/>
<path d="M9680 7865 c16 -20 5 -32 -14 -16 -8 7 -25 9 -40 5 -16 -4 -26 -2
-26 5 0 6 -7 11 -15 11 -18 0 -20 -26 -2 -34 6 -3 1 -3 -13 0 -14 3 -31 13
-38 22 -9 12 -15 13 -24 4 -9 -9 -9 -12 0 -12 7 0 12 -7 12 -15 0 -8 -7 -15
-15 -15 -8 0 -15 5 -15 10 0 6 -7 10 -15 10 -8 0 -15 7 -15 16 0 9 -5 14 -12
12 -16 -6 -23 -29 -7 -26 27 6 20 -30 -9 -44 -25 -13 -31 -13 -50 0 -12 8 -22
21 -22 28 0 16 -26 19 -35 4 -3 -5 1 -10 9 -10 20 0 27 -13 15 -30 -8 -13 -11
-12 -20 3 -10 17 -12 17 -37 1 -18 -12 -27 -13 -30 -6 -5 15 -32 16 -32 2 0
-5 7 -10 15 -10 8 0 15 -4 15 -9 0 -16 -20 -23 -34 -12 -9 7 -18 6 -33 -4 -21
-15 -33 -11 -33 12 0 7 7 13 15 13 8 0 15 5 15 10 0 22 -36 8 -52 -20 -16 -28
-16 -30 0 -39 22 -12 12 -22 -16 -15 -26 7 -38 40 -22 59 10 12 10 15 -1 15
-21 0 -41 -50 -27 -67 6 -7 7 -17 3 -21 -4 -4 -10 -2 -12 4 -5 14 -43 6 -43
-8 0 -5 -7 -20 -16 -34 -13 -19 -20 -22 -30 -13 -14 12 -9 33 6 24 5 -3 11 -1
14 4 4 5 2 13 -4 16 -12 8 -60 -34 -60 -52 0 -18 -27 -16 -34 2 -3 8 2 19 12
24 9 5 13 13 9 18 -5 4 -21 -8 -37 -27 -16 -19 -36 -42 -45 -51 -8 -9 -15 -21
-15 -27 0 -7 -5 -12 -11 -12 -6 0 -9 -9 -6 -20 6 -24 0 -25 -41 -4 -18 8 -32
22 -32 30 0 19 26 18 34 -1 5 -14 36 -11 36 4 0 7 -49 31 -64 31 -6 0 -16 -12
-23 -26 -11 -23 -10 -27 7 -31 11 -3 20 -13 20 -22 -1 -23 -42 -70 -47 -53 -7
20 -41 14 -48 -9 -5 -16 -10 -18 -21 -8 -19 16 -44 4 -44 -21 0 -11 -4 -20
-10 -20 -5 0 -10 -4 -10 -10 0 -5 9 -10 21 -10 16 0 19 4 14 20 -5 15 -2 20
13 20 18 0 19 -3 9 -36 -9 -29 -8 -37 4 -45 23 -15 -4 -10 -35 6 -30 16 -56
14 -56 -5 0 -5 11 -10 25 -10 26 0 33 -14 13 -26 -6 -4 -14 -2 -16 4 -2 7 -10
12 -18 12 -8 0 -23 6 -34 12 -16 11 -22 9 -34 -7 -11 -16 -17 -17 -27 -8 -15
15 -53 -3 -45 -22 2 -7 -2 -16 -9 -19 -8 -3 -18 -23 -21 -46 -4 -22 -10 -40
-15 -40 -5 0 -9 -7 -9 -16 0 -25 -37 -67 -46 -52 -4 6 -2 14 4 16 7 2 12 13
12 24 0 15 -5 18 -19 13 -14 -4 -21 0 -27 17 -4 13 -2 24 5 26 19 6 12 20 -8
15 -23 -6 -38 14 -22 30 17 17 13 25 -13 23 -18 -1 -22 -4 -14 -13 14 -17 0
-35 -22 -28 -10 3 -21 1 -25 -4 -3 -7 0 -8 9 -5 9 3 16 1 16 -5 0 -7 9 -9 24
-5 29 7 46 -24 21 -39 -10 -5 -14 -16 -10 -28 4 -11 2 -19 -4 -19 -6 0 -11 -9
-11 -20 0 -23 -13 -26 -29 -6 -9 10 -8 16 3 25 8 7 12 19 9 27 -3 7 2 17 11
20 25 10 11 19 -30 19 -33 0 -39 -4 -45 -27 -5 -21 -4 -28 6 -28 20 0 28 -19
16 -34 -6 -7 -9 -21 -5 -30 4 -9 1 -16 -6 -16 -7 0 -10 -8 -7 -20 3 -11 1 -23
-4 -26 -5 -3 -9 -16 -9 -30 0 -13 -5 -24 -10 -24 -14 0 -23 26 -14 41 4 7 8
27 10 46 2 26 0 32 -9 25 -16 -13 -60 -8 -65 6 -2 7 6 12 17 12 12 0 21 4 21
9 0 10 -46 9 -56 -2 -3 -3 1 -20 10 -38 15 -29 15 -33 -1 -44 -11 -9 -13 -14
-4 -19 6 -4 9 -12 6 -17 -10 -15 -23 -11 -28 9 -4 13 -5 11 -6 -5 0 -13 -5
-23 -11 -23 -5 0 -10 -4 -10 -10 0 -5 10 -9 21 -7 37 4 32 -20 -6 -27 -31 -6
-51 -26 -25 -26 20 0 10 -28 -12 -34 l-23 -7 23 -9 c15 -7 21 -14 16 -22 -5
-7 -9 -30 -10 -51 -2 -31 0 -36 12 -26 8 7 11 20 8 35 -3 13 -2 24 3 24 15 0
33 -23 33 -41 0 -9 9 -19 20 -22 11 -3 20 -10 20 -16 0 -14 -17 -14 -25 -1
-10 16 -25 12 -25 -6 0 -14 -3 -14 -16 -3 -13 10 -17 10 -25 -2 -14 -23 -11
-28 17 -26 15 1 29 -4 32 -12 3 -10 -1 -13 -14 -9 -11 3 -25 -1 -32 -9 -17
-18 -34 -7 -31 20 2 35 0 40 -15 28 -15 -13 -32 1 -22 18 3 5 1 23 -5 39 -8
25 -8 36 5 53 12 17 13 26 4 36 -6 7 -12 37 -13 66 -2 35 -11 67 -30 100 -14
26 -29 47 -32 47 -6 0 -73 -49 -108 -80 -16 -15 -57 -42 -90 -60 -32 -18 -76
-49 -97 -70 -22 -21 -52 -40 -69 -44 -19 -3 -28 -10 -23 -17 4 -7 -1 -9 -12
-7 -11 2 -18 11 -18 21 2 20 -13 21 -52 7 -20 -8 -29 -8 -35 1 -5 9 -11 8 -24
-4 -9 -10 -21 -17 -27 -17 -5 0 -7 -7 -4 -16 8 -22 -4 -40 -15 -23 -7 11 -9
11 -9 -1 0 -13 -1 -13 -10 0 -11 17 -14 -89 -4 -126 6 -21 8 -21 63 16 32 21
65 50 75 64 9 14 23 26 30 26 8 0 16 9 19 21 3 12 10 18 16 14 16 -10 -13 -50
-132 -180 -63 -70 -67 -77 -62 -112 3 -21 12 -105 20 -188 25 -276 96 -940
101 -955 5 -13 7 -12 18 3 8 10 26 17 44 17 17 0 34 5 38 11 3 6 17 8 29 5 13
-3 27 -2 30 4 3 5 19 10 35 10 16 0 30 7 34 16 4 11 14 15 31 11 18 -3 29 1
36 14 5 11 21 19 34 19 18 0 25 5 25 19 0 25 18 37 33 22 8 -8 8 -11 -1 -11
-7 0 -12 -7 -12 -15 0 -8 5 -15 10 -15 6 0 13 7 15 15 3 8 7 22 10 31 4 11 9
13 18 7 8 -7 26 -1 57 18 25 15 60 36 78 45 19 9 36 23 39 31 3 7 9 11 14 8
12 -8 -1 -35 -17 -35 -8 0 -14 -4 -14 -10 0 -5 -5 -10 -10 -10 -6 0 -21 -9
-33 -21 -12 -11 -37 -27 -54 -34 -31 -13 -45 -35 -23 -35 6 0 10 4 10 9 0 5
12 12 28 16 15 3 41 17 59 31 17 13 36 24 42 24 6 0 11 5 11 10 0 6 5 10 10
10 19 0 10 -32 -10 -37 -23 -6 -25 -14 -9 -30 7 -7 2 -17 -19 -31 -16 -12 -32
-19 -36 -15 -3 3 -6 1 -6 -5 0 -7 -7 -12 -15 -12 -8 0 -15 -5 -15 -11 0 -6 7
-9 15 -5 10 4 15 -1 15 -15 0 -15 5 -19 15 -15 10 4 15 -1 15 -14 0 -30 18
-24 22 7 6 48 24 36 24 -17 0 -27 -4 -50 -9 -50 -5 0 -6 -8 -3 -17 8 -19 -10
-34 -31 -26 -10 4 -11 9 -2 19 7 8 9 17 6 21 -4 3 -2 12 4 20 9 9 8 13 0 13
-6 0 -20 -20 -31 -44 -10 -24 -23 -47 -29 -50 -5 -4 -8 -13 -4 -21 3 -9 -1
-15 -10 -15 -20 0 -31 16 -17 25 14 8 3 25 -16 25 -8 0 -12 -5 -9 -10 9 -15
-24 -25 -38 -11 -8 8 -8 11 0 11 6 0 13 9 16 20 7 26 4 25 -28 -4 -19 -17 -23
-26 -14 -32 9 -5 5 -10 -10 -16 -31 -11 -47 1 -24 18 10 7 14 14 9 14 -5 0 -3
7 4 15 7 9 10 18 6 22 -7 8 -52 -38 -48 -49 1 -5 -3 -8 -9 -8 -6 0 -8 -7 -5
-15 3 -9 -1 -18 -9 -22 -11 -4 -13 -9 -5 -18 8 -9 5 -14 -9 -18 -28 -7 -89 7
-73 17 7 4 10 11 7 16 -3 5 -1 11 5 15 15 9 12 25 -5 25 -8 0 -15 -8 -15 -18
0 -10 -8 -34 -19 -54 -18 -36 -18 -48 2 -48 5 0 7 6 4 14 -3 8 2 16 14 19 26
7 31 -4 13 -38 -12 -23 -12 -30 -2 -37 21 -13 28 -9 28 12 0 13 7 20 20 20 11
0 20 -4 20 -10 0 -5 -4 -10 -10 -10 -5 0 -10 -9 -10 -19 0 -11 -4 -21 -10 -23
-5 -1 -7 -13 -4 -26 5 -15 14 -22 33 -23 l26 0 -22 -16 c-27 -18 -30 -48 -7
-61 13 -7 11 -13 -16 -40 -17 -18 -35 -32 -40 -32 -5 0 -16 -9 -24 -21 -8 -12
-19 -18 -25 -14 -6 3 -11 1 -11 -5 0 -6 -11 -15 -25 -20 -14 -5 -25 -14 -25
-20 0 -5 -9 -10 -19 -10 -11 0 -23 -5 -26 -10 -4 -6 -11 -7 -17 -4 -9 6 -3
-126 8 -167 6 -21 56 -16 92 10 26 18 77 30 135 31 16 0 27 5 27 14 0 8 10 14
23 15 44 1 97 13 92 21 -8 13 11 21 63 25 27 3 64 10 83 17 18 8 43 13 54 12
11 0 34 -2 50 -3 l30 -1 -25 -20 c-16 -12 -27 -15 -31 -8 -9 14 -32 -1 -25
-17 5 -14 -30 -52 -39 -43 -8 7 5 38 16 38 5 0 9 5 9 10 0 6 -7 10 -15 10 -8
0 -15 -6 -15 -13 0 -7 -9 -18 -20 -25 -16 -10 -20 -10 -20 0 0 7 -11 0 -25
-15 -20 -21 -32 -26 -50 -21 -21 5 -25 3 -25 -16 0 -16 4 -20 16 -16 9 3 24 6
34 6 10 0 22 9 25 20 7 23 35 27 35 5 0 -12 15 -13 88 -9 48 3 125 9 172 15
47 6 105 13 130 16 25 3 56 5 69 4 16 -1 21 3 18 13 -4 10 5 16 28 20 19 4 37
11 41 17 7 12 -98 9 -107 -4 -7 -10 -39 2 -39 14 0 5 9 9 21 9 11 0 18 4 14 9
-6 10 -44 9 -61 -2 -16 -10 -54 4 -54 19 0 8 -4 14 -10 14 -5 0 -10 -4 -10
-10 0 -13 -43 -13 -56 0 -8 8 -15 6 -24 -5 -16 -19 -30 -19 -66 0 -23 11 -25
15 -11 20 9 4 20 4 25 1 11 -7 90 32 121 60 16 15 20 24 11 29 -8 5 -7 12 6
26 9 10 20 16 25 13 5 -3 19 1 31 8 13 7 41 13 63 13 51 0 57 28 8 33 -38 4
-42 16 -12 33 16 8 23 8 29 -1 5 -8 17 -4 43 13 35 24 142 45 192 39 11 -2 31
0 45 3 33 9 14 19 -62 34 -46 10 -57 16 -60 33 -2 14 -13 24 -31 29 -16 4 -44
24 -63 43 -21 22 -45 36 -59 36 -17 0 -32 12 -50 38 -14 20 -27 36 -30 35 -13
-7 -25 -1 -25 12 0 9 -7 18 -15 22 -23 8 -45 56 -34 74 14 23 10 57 -8 68 -11
6 -17 20 -15 39 2 23 -3 31 -19 35 -11 3 -19 11 -18 19 4 36 -1 41 -37 35 -25
-4 -34 -2 -31 6 2 7 18 12 36 13 44 0 65 23 52 57 -6 15 -14 28 -18 29 -30 6
-70 4 -80 -4 -6 -5 -14 -5 -16 -1 -10 15 7 28 39 30 34 2 114 33 114 44 0 4
-6 12 -14 18 -13 11 -11 18 7 49 12 20 27 43 35 51 7 7 10 21 7 30 -3 10 3 20
18 26 17 8 24 23 32 72 6 34 13 65 18 69 4 4 7 28 7 54 0 26 3 75 7 110 l6 63
71 -6 c39 -3 93 -11 119 -18 41 -12 49 -11 57 1 6 10 4 20 -6 31 -8 9 -11 19
-6 20 5 2 12 21 16 41 6 33 3 41 -28 76 -29 31 -32 40 -20 47 15 10 11 33 -21
111 -8 17 -11 50 -8 76 5 40 10 49 39 64 19 10 34 22 34 26 0 3 8 9 18 12 11
4 24 16 31 29 6 12 25 30 42 39 29 17 30 17 39 -8 6 -14 13 -36 16 -49 3 -14
10 -25 16 -25 18 0 48 21 48 34 0 8 12 21 26 31 18 11 24 23 21 36 -6 23 10
36 25 21 7 -7 17 -8 27 -3 9 5 21 10 26 10 59 8 85 16 89 27 8 20 -4 44 -20
44 -8 0 -17 -7 -20 -15 -9 -22 -66 -19 -91 5 -12 10 -25 30 -28 42 -4 13 -14
30 -22 40 -14 16 -27 101 -14 93 4 -2 13 0 21 5 11 7 11 14 0 39 -20 50 13
201 44 201 8 0 18 9 21 20 3 11 18 23 33 26 15 3 43 10 63 15 33 8 40 6 72
-23 25 -24 38 -47 45 -83 6 -27 15 -61 21 -75 8 -22 10 -22 11 -5 1 11 4 14 7
8 5 -15 33 -18 33 -4 0 5 9 11 20 14 11 3 20 0 20 -5 0 -6 9 -3 20 7 14 13 17
22 10 29 -5 5 -10 19 -10 29 0 13 9 4 24 -24 48 -91 61 -109 73 -105 6 3 14
-2 17 -9 4 -11 14 -9 47 13 23 15 43 26 45 25 2 -2 20 6 39 17 29 16 39 18 55
8 16 -10 25 -8 55 14 20 14 44 41 53 59 20 39 54 54 45 19 -3 -13 -11 -19 -19
-16 -10 4 -14 -4 -14 -27 l1 -32 36 39 c28 30 35 34 31 18 -4 -12 -2 -22 3
-22 5 0 9 -5 9 -11 0 -5 -4 -7 -10 -4 -5 3 -10 1 -10 -4 0 -12 11 -14 33 -5 9
3 13 13 10 25 -3 10 0 19 6 19 6 0 11 6 11 14 0 7 6 19 14 25 14 12 29 64 15
56 -16 -10 -18 14 -4 41 23 45 20 54 -14 41 -21 -8 -38 -27 -56 -64 -27 -52
-45 -61 -45 -21 0 11 8 22 20 25 21 6 28 23 9 23 -6 0 3 15 21 33 18 17 37 44
42 60 6 16 17 27 28 27 10 0 22 9 25 20 7 23 25 27 25 5 0 -19 2 -19 46 0 41
17 46 52 6 47 -24 -4 -29 10 -9 25 25 20 64 23 96 7 19 -9 46 -14 64 -11 23 3
40 -2 63 -19 25 -18 39 -22 68 -17 30 5 36 10 36 31 0 20 -3 22 -14 13 -10 -9
-15 -8 -20 4 -3 8 -17 15 -31 15 -18 0 -25 5 -25 20 0 16 -7 20 -30 20 -21 0
-30 5 -30 16 0 12 -7 14 -29 9 -23 -5 -29 -2 -34 16 -8 28 -33 18 -30 -12 3
-23 2 -23 -12 -5 -9 12 -21 17 -36 13 -15 -4 -23 0 -26 14 -3 10 -9 19 -14 19
-5 0 -9 9 -9 19 0 21 -17 37 -28 26 -3 -3 0 -10 7 -14 8 -5 11 -17 7 -28 -8
-24 -66 -31 -66 -8 0 21 -19 28 -37 14 -13 -11 -17 -10 -28 4 -15 21 -29 22
-21 2 10 -26 -9 -16 -27 15 -10 17 -25 30 -34 30 -13 0 -13 -3 -3 -15z m-113
-247 c-8 -18 -18 -60 -22 -93 -5 -33 -10 -52 -12 -42 -6 25 -20 21 -37 -11
-21 -41 -51 -64 -88 -65 -32 -2 -33 -1 -36 40 -2 32 2 47 18 63 11 11 25 32
30 46 5 13 18 27 27 31 10 4 23 13 29 21 15 20 36 5 29 -19 -4 -10 -2 -19 4
-19 5 0 12 9 16 19 7 24 46 74 52 68 2 -3 -2 -20 -10 -39z"/>
<path d="M5193 6922 c-42 -14 -58 -32 -28 -32 8 0 15 -4 15 -8 0 -5 25 -34 56
-65 30 -32 51 -57 45 -57 -5 0 -13 5 -16 10 -3 6 -14 10 -23 10 -16 -1 -16 -1
1 -11 9 -5 17 -15 17 -20 0 -6 -5 -7 -11 -3 -7 4 -10 1 -7 -7 3 -8 10 -13 16
-12 6 2 9 -4 6 -12 -4 -8 -1 -15 5 -15 6 0 11 5 11 11 0 5 5 7 11 3 8 -5 8 -9
-1 -14 -9 -5 -7 -13 6 -29 10 -11 22 -21 27 -21 13 0 -2 52 -20 73 -15 16 -15
17 3 17 10 0 28 -7 38 -15 11 -8 24 -15 30 -15 5 0 1 7 -10 15 -11 8 -14 15
-6 15 17 0 15 20 -2 20 -7 0 -19 7 -26 15 -11 13 -6 15 39 15 28 0 51 4 51 10
0 5 -26 17 -57 25 -90 25 -110 35 -92 45 11 8 10 12 -9 25 -12 9 -20 20 -17
25 10 16 -9 16 -52 2z"/>
<path d="M4200 6870 c0 -5 5 -10 11 -10 25 0 -6 -21 -46 -31 -35 -9 -47 -18
-60 -44 -8 -19 -24 -37 -35 -40 -37 -12 -68 -51 -63 -79 5 -27 28 -36 35 -14
3 9 15 7 45 -5 22 -9 43 -13 46 -10 3 3 16 -4 28 -16 13 -12 29 -21 36 -21 7
0 13 -9 13 -19 0 -25 18 -37 33 -22 7 7 14 7 24 0 10 -9 22 -5 48 15 28 22 35
34 35 62 0 24 5 34 15 34 8 0 15 4 15 9 0 6 -15 7 -34 4 -28 -4 -34 -2 -41 18
-4 13 -6 34 -5 47 1 12 -2 22 -7 21 -22 -4 -35 2 -30 15 8 21 -3 27 -27 15
-16 -8 -14 -4 7 15 l28 26 -25 10 c-14 5 -26 14 -26 20 0 5 -4 10 -10 10 -5 0
-10 -4 -10 -10z"/>
<path d="M10280 6843 c-5 -55 -4 -85 3 -90 12 -7 8 -23 -6 -23 -7 0 -14 -14
-15 -32 -4 -55 -14 -92 -29 -103 -8 -6 -15 -20 -16 -33 0 -12 -7 -22 -14 -22
-21 0 -26 -21 -7 -35 16 -11 20 -10 31 4 12 16 15 12 17 -19 1 -8 10 -15 20
-15 11 0 21 -6 24 -13 8 -26 22 1 22 45 0 32 -5 50 -17 59 -14 11 -15 15 -5
22 10 7 13 38 11 117 -1 103 -14 193 -19 138z"/>
<path d="M9417 6833 c-9 -8 12 -33 29 -33 7 0 18 -9 24 -20 6 -11 16 -20 23
-20 7 0 23 -13 35 -30 13 -16 29 -30 37 -30 8 0 20 -9 27 -20 7 -11 18 -20 23
-20 6 0 26 -11 45 -25 19 -14 41 -23 49 -20 25 7 45 -10 38 -34 -8 -32 6 -25
26 12 23 42 14 136 -10 111 -8 -8 -12 -21 -9 -30 4 -9 2 -12 -5 -8 -6 4 -34
12 -61 18 -27 6 -49 16 -49 21 1 13 88 43 128 44 17 1 34 5 38 10 8 13 -125
26 -144 14 -24 -15 -99 -8 -120 11 -10 9 -23 16 -29 16 -7 0 -12 5 -12 10 0 6
-13 10 -30 10 -16 0 -30 5 -30 10 0 11 -13 13 -23 3z"/>
<path d="M4823 6786 c5 -13 -4 -22 -37 -37 -24 -10 -51 -16 -60 -13 -11 4 -17
-2 -22 -23 -4 -15 -14 -38 -22 -50 -13 -20 -12 -26 2 -45 45 -66 54 -70 74
-37 7 11 18 18 25 16 7 -2 27 2 46 9 24 10 37 11 47 3 9 -8 16 -5 25 13 7 13
12 29 11 36 -2 6 4 12 13 12 19 0 19 11 0 36 -11 15 -17 16 -23 6 -5 -7 -16
-10 -26 -6 -15 6 -17 3 -12 -17 7 -23 6 -23 -8 -5 -9 11 -22 24 -28 29 -8 5
-5 6 10 2 26 -7 30 10 5 20 -17 6 -17 7 0 16 23 13 22 26 -5 40 -18 10 -20 9
-15 -5z"/>
<path d="M9887 6691 c-8 -9 -17 -24 -20 -33 -4 -10 -11 -18 -17 -18 -5 0 -10
-9 -10 -20 0 -11 -7 -20 -15 -20 -8 0 -15 -6 -15 -14 0 -20 -24 -37 -57 -39
-36 -3 -35 -21 2 -27 27 -5 34 -27 7 -24 -10 2 -10 -1 -1 -13 7 -7 18 -12 25
-9 7 3 16 0 20 -6 4 -7 10 -5 16 6 5 9 13 14 18 11 4 -3 7 6 5 21 -2 19 1 24
13 19 11 -4 13 1 10 20 -3 14 -1 25 3 25 5 0 8 6 7 13 -2 6 5 11 15 10 14 -1
18 4 14 19 -5 16 -2 19 14 15 12 -3 22 0 25 8 7 16 31 9 60 -17 22 -19 36 -15
27 8 -6 17 -59 44 -87 44 -19 1 -19 2 -3 11 9 5 17 14 17 19 0 15 -59 8 -73
-9z"/>
<path d="M5215 6541 c-3 -6 -11 -9 -16 -6 -5 4 -9 -3 -9 -14 0 -11 5 -23 10
-26 18 -11 12 -62 -9 -68 -17 -4 -18 -9 -8 -46 6 -22 14 -41 18 -41 4 0 17
-18 28 -41 14 -26 17 -39 9 -37 -7 3 -18 14 -24 26 -20 39 -23 36 -21 -20 3
-83 28 -104 87 -73 34 18 38 31 12 38 -11 2 -22 14 -25 27 -5 18 -2 21 14 17
23 -6 24 2 4 50 -12 29 -13 38 -3 44 9 6 8 10 -4 14 -16 6 -45 70 -40 89 2 5
-5 17 -15 28 -15 16 -15 21 -3 28 8 5 12 12 8 15 -3 4 -9 1 -13 -4z"/>
<path d="M8820 6496 c-26 -8 -38 -20 -49 -49 -13 -35 -13 -42 2 -67 21 -35 21
-50 2 -50 -11 0 -15 -11 -15 -40 0 -49 28 -110 51 -110 9 0 31 -16 49 -36 28
-33 30 -38 16 -53 -14 -15 -10 -19 52 -48 37 -18 83 -34 102 -37 59 -7 100
-18 106 -27 3 -5 12 -9 20 -9 8 0 29 -10 45 -22 l31 -23 23 29 c25 31 24 46 0
46 -8 0 -12 -6 -9 -14 8 -21 -9 -27 -37 -13 -13 7 -34 13 -47 14 -27 2 -53 21
-51 37 4 32 -4 46 -37 65 -20 12 -42 20 -48 17 -7 -3 -7 -5 2 -5 6 -1 12 -8
12 -16 0 -8 6 -15 14 -15 14 0 46 -36 46 -52 0 -14 -38 -8 -44 7 -3 8 -11 15
-19 15 -26 0 -90 40 -113 71 -13 18 -24 34 -24 36 0 10 41 1 54 -12 8 -8 17
-11 20 -6 4 5 1 11 -6 13 -15 5 -1 28 17 28 19 0 55 31 55 47 0 7 9 22 21 34
16 16 18 23 9 34 -9 11 -5 24 15 60 15 25 26 47 24 48 -36 25 -61 36 -73 31
-16 -6 -56 24 -56 44 0 7 -7 15 -15 18 -8 4 -12 10 -9 15 9 15 -20 10 -49 -10
-15 -10 -35 -28 -43 -40 -23 -32 -37 -25 -19 10 22 41 16 49 -25 35z"/>
<path d="M9610 6280 c0 -5 -7 -10 -15 -10 -8 0 -15 -7 -15 -15 0 -8 -6 -15
-14 -15 -8 0 -23 -11 -33 -24 -17 -22 -83 -44 -83 -28 0 14 -78 14 -87 0 -16
-26 -12 -70 8 -75 10 -3 17 -8 14 -12 -7 -13 99 -9 120 3 11 7 41 19 68 27 26
7 47 17 47 22 0 5 10 5 21 2 15 -5 19 -4 15 4 -8 12 32 31 50 24 7 -2 15 0 19
6 3 6 19 11 36 11 31 0 37 11 16 28 -18 16 -67 26 -67 14 0 -5 -7 -12 -15 -16
-19 -7 -51 4 -36 13 19 12 0 51 -25 51 -13 0 -24 -4 -24 -10z"/>
<path d="M9860 6100 c0 -15 79 -172 95 -190 21 -23 19 -39 -10 -62 -14 -11
-25 -26 -25 -34 0 -8 -9 -14 -20 -14 -11 0 -20 -4 -20 -10 0 -5 4 -10 9 -10
14 0 8 -54 -8 -66 -12 -10 -11 -13 8 -24 17 -9 20 -15 12 -23 -6 -6 -11 -20
-11 -30 0 -11 -8 -25 -17 -32 -15 -11 -16 -16 -5 -37 10 -18 11 -39 3 -88 -6
-36 -11 -68 -11 -72 0 -4 -10 -8 -22 -11 -21 -3 -22 -4 -4 -12 14 -6 23 -3 35
13 9 11 34 27 56 35 62 23 142 47 157 47 21 0 88 59 82 74 -3 7 11 20 33 32
21 10 46 27 56 37 24 23 56 21 123 -8 31 -14 63 -25 72 -25 23 0 127 -34 130
-42 5 -12 22 -10 22 2 0 6 -8 14 -17 17 -10 4 -32 16 -49 28 -17 12 -58 27
-90 35 -32 7 -65 18 -72 23 -7 6 -49 12 -93 15 -43 3 -79 8 -79 13 0 15 44 39
82 45 39 7 62 34 29 34 -10 0 -34 7 -52 15 -33 14 -33 14 -7 15 15 0 30 5 33
10 8 13 -7 13 -40 0 -18 -7 -25 -15 -21 -25 4 -10 -1 -15 -15 -15 -11 0 -33
-12 -47 -28 -36 -37 -60 -67 -45 -59 6 4 14 3 18 -3 3 -5 -10 -24 -29 -41 -20
-17 -33 -35 -31 -40 10 -16 -37 -68 -68 -75 -21 -4 -26 -9 -16 -14 9 -6 2 -11
-22 -18 -19 -5 -37 -5 -40 0 -3 5 -14 6 -23 2 -16 -6 -17 -4 -6 15 9 18 8 27
-4 46 -14 21 -14 23 4 28 12 3 18 11 15 19 -3 7 8 27 25 45 36 38 36 41 8 45
-21 4 -19 7 24 47 l46 43 -4 57 c-8 85 -12 98 -44 135 -17 18 -37 49 -45 67
-23 52 -65 97 -65 69z"/>
<path d="M9325 6021 c-3 -6 -1 -11 4 -11 6 0 11 -4 11 -10 0 -5 -7 -10 -15
-10 -8 0 -15 -8 -15 -17 0 -9 -7 -24 -16 -34 -14 -16 -14 -19 5 -38 17 -17 26
-19 40 -11 21 11 139 4 155 -9 6 -5 20 -5 31 0 11 4 14 8 7 8 -7 1 -25 9 -39
18 l-26 17 23 6 c41 10 34 28 -14 35 -25 4 -46 11 -46 15 0 5 -18 11 -40 15
-22 4 -38 11 -37 17 3 15 -20 21 -28 9z"/>
<path d="M1700 5991 c-14 -3 -34 -11 -45 -18 -19 -11 -19 -12 8 -37 34 -31 34
-31 56 -5 16 20 20 21 54 8 35 -12 50 -29 26 -29 -13 0 -39 -25 -39 -38 0 -11
128 -28 175 -23 39 4 45 10 38 44 -4 20 -11 27 -29 27 -22 0 -28 8 -25 35 0 6
-18 11 -41 12 -23 2 -56 7 -73 12 -50 15 -79 18 -105 12z"/>
<path d="M8944 5856 c-4 -9 -1 -23 6 -30 6 -8 12 -28 12 -44 1 -27 4 -30 37
-30 20 1 67 -2 105 -5 39 -3 77 -2 88 4 16 9 18 6 16 -23 -2 -18 -7 -36 -13
-40 -6 -5 -6 -11 1 -18 9 -9 14 -9 18 -1 4 6 15 11 24 11 14 0 15 -2 2 -10
-28 -17 -2 -21 36 -5 31 13 36 18 24 25 -8 5 -22 10 -31 10 -9 0 -17 6 -16 13
1 33 -4 47 -18 47 -13 0 -14 4 -4 21 8 16 8 23 0 29 -7 4 -11 11 -10 16 4 25
-2 36 -18 29 -40 -16 -88 -23 -103 -15 -9 5 -41 10 -71 13 -31 2 -61 7 -67 11
-7 4 -15 0 -18 -8z"/>
<path d="M11270 5861 c0 -7 -11 -16 -25 -21 -14 -5 -25 -13 -24 -17 3 -21 -3
-31 -21 -36 -17 -4 -20 -2 -15 13 4 14 0 18 -20 18 -17 0 -25 -6 -25 -19 0
-10 5 -21 10 -24 19 -12 11 -38 -10 -32 -11 3 -22 1 -25 -3 -10 -16 37 -32
104 -37 62 -4 125 -23 133 -41 5 -12 85 -61 111 -67 36 -9 87 -67 97 -109 6
-29 5 -36 -7 -36 -8 0 -17 -9 -20 -20 -5 -19 -24 -25 -64 -22 -9 1 -19 -8 -22
-20 -5 -17 -9 -19 -20 -9 -12 9 -16 8 -19 -7 -5 -16 -13 -18 -63 -14 -41 3
-59 1 -66 -9 -4 -7 -24 -14 -44 -16 -20 -1 -42 -6 -48 -11 -7 -5 -25 -12 -42
-16 -92 -21 -124 -28 -157 -33 -21 -3 -38 -9 -38 -14 0 -5 -9 -9 -19 -9 -11 0
-23 -4 -26 -10 -3 -5 -15 -10 -26 -10 -10 0 -19 -4 -19 -9 0 -5 -13 -14 -30
-19 -30 -11 -142 -117 -153 -146 -4 -9 -16 -16 -27 -16 -27 0 -26 -34 2 -54
12 -9 18 -19 14 -23 -4 -4 -15 2 -24 14 -17 22 -34 26 -84 24 -21 -1 -28 -6
-28 -21 0 -23 -15 -27 -24 -5 -3 8 -10 15 -15 15 -6 0 -8 -7 -4 -17 5 -14 1
-15 -27 -10 -28 6 -31 5 -20 -8 11 -13 8 -15 -14 -15 -19 0 -25 4 -20 13 6 9
5 9 -8 -1 -9 -7 -29 -10 -49 -7 -19 3 -28 3 -21 -1 24 -11 12 -24 -20 -20 -18
2 -39 -1 -46 -6 -6 -6 -26 -8 -43 -4 -27 5 -30 4 -24 -14 5 -17 2 -20 -24 -20
-19 0 -30 -5 -28 -12 1 -7 -3 -12 -10 -13 -6 0 -15 -3 -19 -7 -22 -23 393 27
419 50 9 8 20 13 23 9 3 -3 26 3 50 13 44 19 63 11 23 -10 -11 -7 -19 -13 -17
-16 2 -2 56 1 119 6 117 10 167 15 709 75 174 19 324 35 334 35 20 0 19 21
-16 310 -28 233 -29 240 -36 240 -3 0 -23 -12 -43 -26 -38 -26 -65 -25 -55 2
3 8 -1 14 -10 14 -9 0 -46 16 -83 35 -47 26 -73 47 -91 76 -14 22 -25 44 -25
47 0 4 -4 13 -9 21 -6 9 -4 18 7 26 21 15 22 25 2 25 -8 0 -15 7 -15 15 0 8
-4 15 -9 15 -4 0 -19 11 -32 24 -27 26 -89 45 -89 27z m-138 -617 c75 -29 86
-66 43 -141 -35 -59 -88 -85 -163 -81 -41 2 -60 -1 -69 -12 -11 -13 -12 -13
-13 0 0 9 -10 16 -25 16 -13 1 -36 11 -51 23 -15 12 -32 21 -39 21 -7 0 -15 9
-18 21 -4 13 -10 18 -18 13 -8 -4 -10 -3 -5 4 4 7 13 12 19 12 14 0 67 47 67
59 0 4 19 13 43 20 23 7 53 20 67 29 22 14 68 27 107 31 7 0 32 -6 55 -15z"/>
<path d="M9267 5524 c-15 -16 79 -124 108 -124 8 0 15 -4 15 -10 0 -5 7 -10
15 -10 8 0 31 -9 52 -19 56 -28 113 -36 113 -16 0 8 -9 15 -20 15 -11 0 -20 6
-20 13 0 7 -15 19 -32 26 -38 16 -36 15 -66 6 -16 -5 -24 -2 -29 12 -3 10 -12
22 -20 26 -7 4 -13 17 -13 29 0 16 -5 19 -25 16 -24 -5 -29 1 -26 30 2 12 -40
17 -52 6z"/>
<path d="M8890 5475 c0 -8 -7 -15 -15 -15 -16 0 -21 -26 -6 -32 16 -5 30 -152
20 -200 -6 -23 -9 -52 -7 -65 l3 -24 35 29 35 30 27 -19 c14 -11 30 -34 33
-51 10 -42 44 -88 66 -88 10 0 24 9 32 21 14 20 16 20 40 4 14 -9 28 -23 31
-31 3 -8 13 -14 22 -14 10 0 14 5 10 15 -5 15 12 65 26 75 10 7 13 110 4 138
-8 24 -51 32 -58 10 -3 -9 -12 -8 -33 6 -21 14 -41 17 -86 14 -49 -4 -57 -2
-47 10 10 11 8 16 -5 23 -9 6 -17 21 -17 34 0 13 -13 36 -29 52 -15 16 -31 39
-35 51 -9 28 -46 50 -46 27z"/>
<path d="M10177 5272 c-40 -2 -65 -7 -62 -12 4 -6 -1 -10 -9 -10 -9 0 -16 6
-16 13 -1 8 -5 6 -13 -4 -11 -14 -14 -14 -26 -2 -10 11 -16 12 -24 4 -6 -6
-23 -11 -38 -11 -15 0 -31 -5 -34 -10 -5 -8 -11 -7 -21 1 -9 7 -34 9 -69 6
-30 -3 -55 -2 -55 2 0 4 -12 8 -27 9 -16 1 -37 3 -48 4 -11 2 -21 -1 -22 -7
-1 -5 12 -9 30 -8 l32 3 -25 -15 -25 -14 32 -1 c17 0 34 -4 38 -10 3 -5 12 -7
19 -4 8 3 17 1 21 -5 3 -6 15 -11 26 -11 11 0 37 -12 59 -26 22 -15 46 -24 55
-20 10 4 29 -7 51 -29 37 -37 60 -46 50 -19 -5 13 -1 15 20 10 20 -5 25 -4 21
6 -20 49 -20 51 -6 46 8 -2 15 -17 17 -31 2 -15 12 -32 22 -37 18 -10 19 -7
14 42 -5 50 -5 52 11 33 9 -11 20 -26 24 -34 6 -10 13 -11 28 -2 16 8 24 7 33
-4 22 -26 43 -19 35 12 -6 24 -5 25 12 12 10 -8 24 -21 31 -29 9 -10 15 -11
18 -4 3 6 16 9 31 6 18 -3 24 -1 19 7 -4 6 -2 11 4 11 6 0 -10 18 -37 41 -67
58 -73 65 -32 41 50 -30 62 -28 16 3 -20 14 -42 23 -48 19 -6 -3 -23 2 -37 12
-21 15 -41 18 -95 16z"/>
<path d="M9135 4834 c-26 -30 -37 -36 -78 -39 -55 -3 -62 -7 -53 -31 4 -12 14
-15 33 -11 26 5 26 4 8 -9 -17 -13 -13 -14 41 -14 99 0 134 10 145 38 12 30 4
56 -24 82 -28 27 -37 25 -72 -16z"/>
<path d="M10140 4474 c0 -3 7 -19 16 -35 8 -17 17 -56 19 -87 2 -31 5 -73 6
-92 7 -95 -11 -149 -25 -78 -6 32 -6 32 -22 10 -8 -12 -12 -27 -9 -32 3 -6 1
-10 -4 -10 -6 0 -11 10 -11 23 -1 28 -25 73 -33 60 -4 -5 -2 -27 4 -47 6 -20
9 -47 8 -59 -2 -21 4 -44 20 -77 9 -19 2 -60 -10 -60 -5 0 -9 10 -10 23 0 15
-2 17 -6 7 -23 -57 -113 -40 -113 21 0 9 -10 23 -23 32 -14 9 -27 33 -36 66
-15 59 -41 70 -42 19 -1 -65 -10 -193 -14 -214 -4 -16 -10 -20 -29 -17 -24 5
-25 8 -24 87 0 44 5 86 10 93 10 13 5 129 -8 173 -7 22 -6 24 9 11 31 -25 17
1 -28 55 -48 56 -74 68 -165 79 -61 7 -71 2 -114 -56 -27 -37 -33 -84 -17
-139 l7 -25 7 28 c5 16 14 27 25 27 15 1 15 2 -2 15 -21 16 -21 15 30 30 32 9
101 -20 137 -59 65 -71 70 -78 74 -115 2 -20 6 -47 10 -61 18 -72 8 -85 -31
-39 -35 41 -42 32 -22 -27 15 -46 14 -72 -3 -45 -6 9 -11 10 -15 3 -4 -6 -12
-9 -19 -6 -21 8 -19 -51 3 -79 24 -30 27 -59 5 -51 -11 5 -13 2 -9 -10 4 -12
0 -16 -15 -16 -17 0 -19 -4 -12 -17 10 -21 32 -99 35 -129 1 -12 18 -38 38
-58 l35 -36 23 25 c17 18 29 23 48 18 16 -4 23 -2 18 5 -3 6 -2 12 4 14 7 2 7
14 0 37 -9 31 -6 129 4 139 3 2 18 5 35 6 23 2 29 -2 28 -16 -1 -10 -9 -18
-19 -18 -40 0 -14 -17 41 -28 57 -10 110 -38 138 -72 18 -21 15 1 -2 24 -8 11
-15 28 -15 38 0 10 -4 18 -9 18 -10 0 -25 48 -22 70 2 8 8 18 13 21 6 4 8 11
4 17 -3 6 -2 13 3 16 5 4 13 1 16 -5 4 -5 13 -8 21 -5 35 13 64 -26 83 -114 5
-24 17 -50 25 -56 9 -6 16 -18 16 -27 0 -9 5 -19 10 -22 6 -4 8 -11 5 -16 -4
-5 0 -9 8 -9 9 0 16 -14 20 -39 5 -43 33 -82 53 -74 11 4 14 -7 14 -46 0 -38
-4 -51 -15 -51 -11 0 -12 -5 -5 -26 7 -17 7 -32 0 -45 -6 -10 -7 -19 -3 -20 4
0 -2 -4 -14 -9 -14 -6 -20 -15 -17 -23 4 -11 -6 -14 -48 -12 -53 3 -98 13 -98
23 0 2 8 11 18 18 16 12 16 13 -2 20 -12 5 -21 3 -24 -4 -2 -7 -16 -12 -31
-12 -20 0 -31 7 -39 25 -15 33 -15 35 3 35 8 0 15 9 15 20 0 10 16 34 35 53
44 43 48 90 10 135 -33 40 -76 49 -110 25 -20 -14 -24 -23 -18 -43 3 -14 9
-45 12 -70 5 -40 9 -45 34 -48 15 -2 25 -8 21 -13 -3 -5 -9 -7 -14 -4 -4 3
-13 -2 -20 -10 -7 -8 -19 -15 -27 -15 -7 0 -13 -6 -12 -12 4 -31 -2 -46 -21
-51 -12 -3 -20 -14 -20 -25 0 -24 26 -36 34 -16 3 9 11 12 17 9 6 -4 8 -13 5
-20 -2 -7 1 -18 7 -25 10 -10 6 -11 -15 -6 -17 4 -28 2 -28 -4 0 -5 5 -10 11
-10 6 0 3 -7 -5 -16 -9 -8 -16 -24 -16 -35 0 -11 -4 -18 -9 -14 -5 3 -12 -4
-16 -15 -3 -11 -11 -20 -17 -20 -6 0 1 -12 16 -26 27 -27 34 -58 16 -69 -16
-10 -12 -35 11 -63 12 -16 16 -28 10 -30 -18 -6 -2 -22 21 -22 19 0 19 -2 -6
-21 -19 -15 -25 -27 -20 -41 4 -14 2 -19 -7 -16 -7 2 -16 15 -20 29 -6 20 -7
21 -9 4 -1 -19 -2 -18 -10 3 -10 23 -20 26 -57 16 -16 -4 -25 -19 -33 -55 -7
-29 -20 -54 -31 -60 -10 -5 -19 -17 -19 -25 0 -8 5 -12 11 -9 6 4 17 -1 25
-11 13 -18 16 -17 49 21 19 22 35 38 36 35 7 -41 8 -90 1 -90 -4 0 -16 -6 -26
-13 -16 -12 -17 -17 -6 -37 13 -23 13 -23 29 -4 25 28 41 28 41 -2 0 -14 -4
-22 -10 -19 -5 3 -15 -3 -22 -15 -16 -25 -25 -26 -31 -2 -3 13 -6 11 -15 -10
-6 -15 -23 -45 -37 -67 -14 -22 -25 -52 -25 -67 0 -31 -22 -28 -30 4 -9 38
-32 9 -32 -39 1 -30 -2 -39 -8 -29 -6 8 -10 24 -10 35 0 18 -2 18 -23 -7 -12
-14 -41 -31 -63 -37 -22 -6 -48 -17 -59 -25 -25 -19 -45 -20 -45 -2 0 18 -32
10 -56 -13 -11 -10 -29 -15 -46 -13 -35 5 -38 -18 -8 -63 11 -16 20 -37 20
-46 0 -12 7 -15 28 -12 l27 4 -24 -20 c-28 -25 -40 -26 -47 -6 -4 8 -14 15
-23 15 -9 0 -28 6 -42 13 -44 24 -106 29 -139 12 l-30 -16 27 -34 c32 -40 43
-44 43 -15 0 23 22 27 39 7 8 -10 7 -19 -4 -33 -8 -10 -15 -27 -15 -36 0 -13
-8 -18 -30 -18 -24 0 -29 -4 -27 -19 2 -10 9 -27 17 -37 14 -16 13 -17 -7 -12
-19 5 -21 3 -13 -12 5 -10 24 -22 42 -25 18 -4 39 -12 46 -17 8 -8 12 -6 12 4
0 8 9 23 19 32 16 15 22 15 40 4 30 -18 27 -40 -4 -32 -18 5 -25 2 -25 -9 0
-11 7 -14 28 -10 15 2 37 5 48 5 25 0 54 48 30 48 -8 0 -16 6 -19 13 -3 9 -8
9 -21 -2 -12 -10 -20 -11 -28 -3 -8 8 -3 13 18 18 16 4 34 14 41 23 16 20 16
64 2 78 -7 7 -9 19 -5 29 6 16 8 16 22 -2 11 -14 17 -15 20 -6 8 17 24 15 24
-3 0 -18 43 -37 65 -29 10 4 15 0 15 -15 0 -12 2 -21 5 -21 14 0 62 30 79 49
26 29 39 26 33 -6 -7 -40 2 -58 18 -36 17 23 25 14 28 -29 3 -40 31 -88 52
-88 9 0 21 -11 27 -25 14 -30 28 -33 28 -5 0 11 5 20 11 20 6 0 9 -15 8 -34
-3 -35 14 -66 37 -66 19 0 18 16 -2 24 -23 9 -8 24 20 19 13 -3 27 -14 29 -25
6 -23 33 -19 31 4 -1 10 5 14 17 11 11 -3 26 0 34 7 8 6 19 9 25 5 5 -3 26 -1
45 6 28 10 39 10 60 -1 18 -10 22 -16 13 -22 -10 -6 -10 -8 0 -8 19 0 14 -20
-8 -28 -14 -5 -17 -11 -10 -22 8 -12 10 -12 16 3 4 11 17 17 40 17 35 0 46 13
19 24 -26 9 -17 27 10 20 21 -5 25 -3 25 18 0 31 -27 53 -68 55 -40 1 -42 3
-47 41 -3 20 2 35 15 47 14 12 17 25 13 50 -5 31 -3 35 23 40 16 4 34 8 40 10
6 2 27 -14 47 -36 21 -21 44 -39 52 -39 20 0 19 6 -10 44 -14 18 -25 45 -25
59 0 15 -4 27 -10 27 -5 0 -10 5 -10 11 0 8 4 9 13 0 8 -6 16 -8 19 -5 3 3 16
-9 28 -25 45 -65 84 -16 57 70 -10 28 -17 62 -17 75 0 13 -4 24 -10 24 -5 0
-10 -5 -10 -12 0 -6 -13 7 -29 30 -17 22 -39 43 -50 47 -12 3 -21 11 -21 16 0
22 -29 7 -32 -17 -2 -15 -10 -30 -18 -34 -51 -25 -96 -43 -102 -42 -4 1 -10
-9 -14 -23 -3 -14 -13 -25 -20 -25 -8 0 -17 -8 -21 -17 -8 -23 -34 -53 -45
-53 -5 0 -6 5 -3 10 3 6 -2 22 -13 38 -10 15 -19 42 -20 61 -2 19 -7 39 -11
45 -5 6 -12 27 -16 46 -5 31 -3 36 20 47 14 6 25 7 25 2 0 -12 27 -12 34 0 11
16 -15 109 -34 126 -18 17 -18 18 0 38 16 17 22 18 35 7 14 -12 15 -10 10 13
-4 14 -4 31 0 37 10 15 31 -10 40 -48 9 -45 25 -50 25 -7 0 22 -6 38 -14 41
-8 3 -17 12 -20 20 -3 9 -1 12 4 9 6 -3 10 0 10 8 0 10 -7 13 -19 10 -25 -6
-51 35 -30 48 9 6 19 2 29 -12 17 -22 30 -16 30 14 0 17 5 19 40 14 l39 -5
-13 27 c-18 33 -4 65 24 56 12 -4 22 0 28 11 9 17 11 17 36 1 29 -20 57 -22
73 -6 8 8 18 6 36 -6 15 -9 30 -14 36 -11 5 3 12 -1 15 -10 8 -21 19 -11 22
21 1 14 10 32 19 41 15 15 14 17 -7 28 -15 8 -27 26 -33 54 l-11 43 -48 -48
-48 -47 -75 1 c-55 1 -80 5 -91 17 -21 21 -8 34 78 78 64 32 140 46 140 26 0
-7 18 -9 47 -5 27 3 56 1 66 -5 15 -8 22 -5 34 11 10 14 25 21 49 21 31 0 34
2 30 24 -3 15 1 27 10 30 10 4 14 24 14 73 -1 67 -1 68 -15 36 -8 -18 -21 -33
-28 -33 -8 0 -17 -7 -21 -15 -7 -19 -45 -19 -52 0 -4 8 1 26 10 40 10 15 12
26 6 30 -20 12 -1 21 39 18 41 -2 47 4 42 43 -1 7 5 14 14 18 8 3 15 12 15 21
0 11 -10 15 -36 15 -31 0 -35 3 -34 23 5 54 0 76 -15 71 -20 -8 -18 6 5 36 21
27 25 56 11 79 -5 7 -14 10 -20 7 -6 -4 -8 -12 -5 -18 4 -7 2 -8 -4 -4 -6 4
-9 13 -5 21 3 10 -1 15 -12 15 -11 0 -15 6 -10 19 6 21 -21 38 -28 18 -3 -7
-4 8 -4 32 1 27 -3 46 -10 48 -9 3 -13 -6 -13 -29 0 -18 -4 -39 -9 -47 -12
-19 -30 -5 -24 19 6 23 -12 27 -21 5 -10 -27 -26 -15 -26 20 0 31 3 35 25 35
14 0 25 5 25 10 0 9 -4 11 -36 14 -20 2 -40 24 -54 61 -9 22 -20 35 -32 35
-10 0 -18 6 -18 13 0 8 -3 7 -10 -3 -7 -11 -4 -17 10 -22 11 -4 20 -15 20 -25
0 -13 -2 -15 -8 -5 -5 7 -16 10 -25 6 -12 -4 -20 2 -27 22 -7 17 -7 30 -1 33
5 3 7 24 5 46 -2 22 -6 71 -9 109 -2 38 -10 74 -15 81 -7 9 -10 61 -8 142 3
115 1 131 -17 155 -19 25 -45 44 -45 32z"/>
<path d="M2950 4288 c0 -13 -5 -30 -11 -38 -8 -12 -9 -10 -4 9 5 16 4 21 -4
16 -7 -4 -22 0 -35 9 -30 19 -38 11 -20 -22 8 -15 14 -32 14 -38 0 -7 11 -19
24 -28 14 -8 35 -26 49 -38 13 -13 33 -31 45 -40 22 -18 22 -18 22 27 0 27 -8
57 -20 77 -11 18 -20 41 -20 50 0 10 -9 22 -20 28 -17 9 -20 8 -20 -12z"/>
<path d="M2478 4138 c3 -42 11 -71 24 -88 12 -15 17 -33 13 -47 -4 -16 1 -25
15 -33 11 -6 20 -19 20 -29 0 -9 11 -28 25 -41 14 -13 25 -29 25 -37 0 -16 -5
-16 -32 -2 -11 6 -22 8 -25 5 -5 -4 8 -22 57 -83 15 -19 40 -4 40 23 0 13 5
24 11 24 6 0 8 -9 4 -20 -5 -14 0 -26 16 -39 27 -22 20 -56 -11 -48 -23 6 -39
-12 -20 -23 18 -11 -5 -23 -30 -15 -19 6 -19 6 1 26 12 12 17 24 13 27 -3 4
-9 1 -11 -5 -3 -9 -17 -11 -45 -6 -32 5 -40 3 -36 -8 3 -8 -2 -19 -11 -26 -14
-11 -13 -12 6 -13 12 0 43 -7 68 -15 37 -13 49 -13 67 -3 13 7 26 11 30 10 4
-1 22 5 40 14 l33 15 -32 -5 c-27 -5 -33 -2 -33 13 0 19 18 31 46 31 8 0 14
-8 14 -17 0 -9 3 -13 7 -10 3 4 12 2 20 -5 10 -8 20 -8 39 2 33 18 24 36 -16
32 -32 -4 -33 -3 -19 15 13 16 12 17 -3 5 -12 -10 -22 -11 -37 -3 -11 6 -28
11 -39 11 -26 0 -49 27 -35 41 8 8 17 5 32 -10 22 -22 41 -27 41 -11 0 20 41
10 67 -17 20 -19 28 -22 31 -13 3 8 0 16 -6 18 -7 2 -12 8 -12 13 0 4 7 6 15
3 8 -4 15 -12 15 -19 0 -8 9 -29 20 -48 17 -29 18 -36 6 -40 -8 -3 -20 1 -27
9 -17 21 -30 4 -21 -30 7 -25 9 -26 21 -12 12 14 16 13 44 -7 42 -30 66 -57
78 -89 6 -16 15 -26 20 -23 11 7 0 37 -19 53 -14 11 -14 20 -3 73 11 53 10 63
-3 78 -9 10 -16 20 -16 24 0 14 -62 97 -70 92 -20 -12 -67 17 -79 50 -7 19
-16 35 -21 35 -5 0 -11 8 -14 18 -3 9 -3 -7 -1 -35 3 -40 1 -53 -10 -53 -9 0
-15 19 -19 58 -3 31 -7 71 -9 88 -4 35 -42 94 -61 94 -8 0 -16 17 -20 40 -3
22 -11 40 -17 40 -6 0 -8 -11 -5 -27 3 -16 11 -64 17 -107 11 -73 11 -80 -6
-92 -15 -11 -16 -14 -3 -14 11 0 14 -7 11 -25 -3 -14 4 -39 18 -62 l23 -38
-23 20 c-67 57 -86 79 -83 96 4 21 -25 79 -46 95 -9 7 -13 18 -9 28 7 17 -41
136 -54 136 -3 0 -3 -28 -1 -62z"/>
<path d="M6921 3769 c-168 -22 -376 -89 -539 -174 -142 -74 -248 -152 -376
-275 -131 -127 -201 -219 -312 -412 -73 -125 -93 -152 -140 -188 -69 -52 -80
-78 -55 -127 16 -32 17 -41 5 -68 -51 -124 -87 -346 -87 -535 1 -292 52 -497
192 -780 49 -98 184 -287 251 -351 21 -20 39 -41 41 -46 7 -16 203 -169 279
-217 206 -130 450 -216 702 -247 123 -14 383 -7 501 15 70 13 91 14 107 4 16
-11 23 -9 47 14 15 14 51 33 78 41 112 33 322 139 453 229 73 50 267 244 337
336 34 46 90 130 124 188 35 57 75 113 91 124 21 15 35 39 49 83 11 34 27 79
35 100 13 29 14 42 5 59 -9 16 -8 35 5 82 35 137 55 235 62 301 8 85 19 115
39 115 8 0 15 5 15 10 0 6 -5 10 -12 10 -9 0 -9 3 0 12 17 17 15 28 -9 36 -18
7 -22 18 -25 78 -3 38 -7 79 -9 92 -4 17 0 25 20 32 14 5 28 16 31 24 3 7 -20
63 -50 122 -52 104 -78 183 -55 169 5 -4 16 -2 23 4 9 7 36 10 74 6 56 -5 60
-4 66 17 4 15 -1 33 -14 50 -10 14 -17 35 -15 47 2 11 0 34 -5 51 -9 31 6 53
20 30 6 -9 10 -7 14 7 12 38 49 62 101 65 50 3 50 3 65 49 9 26 21 53 26 60 6
8 26 43 44 79 40 79 52 100 65 120 5 8 11 24 12 34 3 19 3 19 -14 0 -19 -20
-53 -28 -53 -13 0 5 6 9 14 9 7 0 19 7 26 15 9 10 9 15 1 15 -6 0 -11 -5 -11
-11 0 -5 -5 -7 -11 -3 -8 5 -8 9 1 14 17 11 18 84 1 104 -8 10 -29 16 -54 16
-30 0 -46 6 -64 26 -29 32 -35 28 -67 -51 -14 -33 -30 -59 -36 -57 -7 1 -18
-3 -26 -9 -8 -6 -14 -8 -14 -4 0 4 -14 -5 -31 -20 -17 -14 -37 -24 -43 -22 -6
2 -17 -2 -24 -10 -8 -7 -24 -11 -37 -9 -29 5 -28 10 -51 -289 -9 -126 -21
-234 -24 -238 -4 -5 -27 38 -51 94 -79 188 -251 420 -421 569 -246 216 -552
356 -871 399 -90 13 -321 12 -416 0z m411 -1116 c15 -13 18 -32 18 -103 0 -99
1 -100 75 -100 34 0 47 -5 59 -22 38 -53 7 -96 -76 -107 l-53 -6 0 -178 c0
-165 -1 -180 -19 -193 -21 -15 -64 -18 -83 -6 -25 16 -33 69 -33 223 l0 159
-26 0 c-14 0 -39 9 -55 21 -52 37 -32 97 37 108 l39 6 5 87 c4 65 10 91 24
107 23 25 63 27 88 4z m-1242 -13 c19 -10 34 -45 131 -312 30 -81 58 -146 64
-144 5 1 15 20 21 42 14 49 132 306 167 367 34 58 76 71 113 36 13 -12 24 -31
24 -40 0 -10 -24 -67 -54 -126 -66 -133 -99 -209 -167 -383 -53 -138 -68 -159
-105 -160 -37 0 -62 32 -100 130 -125 323 -187 489 -194 519 -7 28 -5 37 15
57 26 26 55 30 85 14z m1772 -190 c45 -13 94 -66 108 -118 11 -43 0 -92 -29
-126 -25 -28 -92 -65 -152 -82 -74 -21 -109 -35 -109 -44 0 -15 62 -32 99 -27
21 2 67 17 101 33 58 26 64 27 89 13 38 -21 40 -67 4 -100 -67 -63 -247 -94
-320 -55 -48 24 -109 92 -122 135 -14 49 -14 153 0 202 36 118 204 204 331
169z m-916 -16 c145 -69 165 -303 38 -444 -81 -89 -178 -112 -269 -62 -57 31
-89 74 -111 150 -35 121 33 282 149 347 51 30 141 34 193 9z"/>
<path d="M6809 2304 c-50 -32 -74 -81 -74 -155 0 -82 18 -109 75 -109 31 0 44
7 73 39 62 69 72 167 22 217 -28 28 -59 30 -96 8z"/>
<path d="M1930 3569 c-31 -33 -36 -36 -47 -22 -7 9 -19 13 -28 9 -31 -11 2
-104 38 -106 12 0 8 18 -5 23 -7 2 -10 8 -6 12 4 4 14 2 23 -5 13 -10 19 -10
33 4 22 19 63 23 44 4 -16 -16 -15 -28 3 -28 8 0 15 7 15 15 0 8 8 15 18 14
10 0 12 -3 5 -6 -7 -2 -13 -11 -13 -19 0 -20 54 -18 71 2 11 14 10 19 -8 34
-14 11 -32 16 -48 13 -18 -4 -25 -1 -25 11 0 9 -8 31 -18 50 l-18 33 -34 -38z"/>
<path d="M9758 2893 c-9 -32 -38 -41 -55 -17 -12 16 -15 17 -23 4 -5 -8 -10
-10 -10 -5 0 6 -9 11 -20 11 -11 0 -20 -5 -20 -11 0 -6 -3 -5 -8 2 -5 8 -12 8
-26 -3 -19 -14 -12 -19 21 -15 18 2 25 -16 8 -23 -8 -3 -15 -12 -15 -19 0 -8
-6 -20 -14 -26 -14 -12 -15 -58 -1 -80 4 -8 2 -17 -6 -22 -21 -13 -3 -22 20
-10 11 7 30 31 41 55 11 25 34 56 52 70 28 22 35 24 44 11 16 -21 27 -19 15 3
-7 13 -7 22 0 29 6 6 9 23 7 39 -3 27 -4 27 -10 7z"/>
<path d="M10301 2852 c-1 -8 -11 -11 -31 -7 -29 5 -30 4 -30 -30 0 -19 5 -35
11 -35 5 0 9 8 8 18 -3 30 1 35 16 22 9 -8 15 -29 15 -59 -1 -43 -2 -45 -16
-26 -18 25 -69 32 -60 9 3 -9 6 -29 6 -45 0 -22 5 -29 19 -29 23 0 36 -52 20
-82 -14 -27 -3 -67 27 -97 l25 -25 -3 39 c-3 39 -2 40 30 39 34 -2 38 5 22 36
-5 10 -11 39 -11 64 -2 27 -8 47 -16 50 -19 8 -16 36 4 36 9 0 24 -7 34 -16
28 -25 40 -13 23 22 -11 23 -22 32 -40 32 -32 0 -33 1 -43 53 -5 24 -9 38 -10
31z"/>
<path d="M1435 2372 c-5 -4 -16 -17 -23 -29 -10 -19 -10 -23 3 -23 18 0 19
-11 2 -33 -18 -25 -77 -5 -77 26 -1 19 -2 20 -13 7 -14 -18 -92 -26 -102 -11
-10 17 -72 13 -79 -4 -3 -8 -13 -15 -23 -16 -10 -1 2 -5 26 -10 36 -7 46 -5
56 8 11 14 12 14 18 0 3 -9 2 -19 -4 -22 -13 -8 -2 -24 25 -36 19 -8 18 -9 -5
-4 -19 3 -29 0 -33 -11 -5 -14 -9 -14 -23 -3 -13 11 -17 11 -20 2 -9 -24 -25
-13 -19 12 7 29 -1 32 -20 8 -12 -17 -14 -17 -29 5 -13 17 -20 20 -30 12 -13
-11 -45 -4 -45 11 0 5 -9 9 -20 9 -11 0 -20 -7 -20 -15 0 -8 7 -15 15 -15 8 0
15 -8 14 -17 0 -11 -3 -13 -6 -5 -11 28 -23 9 -17 -28 7 -40 -2 -50 -24 -28
-6 6 -15 8 -19 5 -4 -4 5 -20 21 -35 27 -27 27 -27 43 -7 10 14 17 16 20 8 6
-17 45 -16 69 2 25 19 38 19 30 0 -7 -20 13 -19 36 2 17 15 18 15 18 0 0 -18
11 -22 24 -10 4 4 45 9 92 10 64 3 91 0 107 -12 27 -19 47 -19 47 0 0 8 5 15
10 15 6 0 10 -7 10 -15 0 -8 6 -15 14 -15 8 0 21 -3 30 -6 13 -5 14 -1 6 26
-8 27 -7 31 8 28 13 -3 16 -13 15 -39 l-2 -35 66 1 c42 0 68 4 70 12 5 15 -74
56 -93 49 -17 -6 -33 21 -27 44 5 20 47 32 61 18 12 -12 52 25 52 46 0 11 -8
12 -42 4 -24 -6 -48 -17 -54 -24 -6 -8 -15 -14 -20 -14 -12 0 -46 89 -39 100
3 4 -6 11 -19 14 -13 3 -26 15 -29 26 -5 21 -15 25 -32 12z"/>
<path d="M1883 2114 c-3 -8 -2 -21 1 -30 5 -14 16 -16 56 -11 27 3 62 2 77 -3
16 -4 83 -11 151 -14 98 -5 122 -4 122 7 0 26 -90 48 -174 43 -42 -3 -89 -1
-104 4 -52 17 -123 19 -129 4z"/>
<path d="M10410 2088 c0 -7 15 -25 34 -40 28 -22 35 -35 38 -73 2 -31 -1 -45
-9 -45 -7 0 -13 -11 -13 -25 0 -34 15 -31 32 5 7 17 16 30 19 30 14 0 60 -28
59 -36 -1 -5 6 -10 14 -12 23 -5 20 24 -4 41 -20 14 -20 14 4 40 34 36 41 34
43 -13 0 -22 -3 -40 -9 -40 -5 0 -6 -5 -2 -11 3 -6 9 -7 13 -3 9 13 71 44 87
44 31 0 11 -18 -33 -30 -37 -11 -43 -15 -27 -21 31 -12 44 -10 44 7 0 11 6 14
23 8 53 -16 53 -16 36 -2 -15 12 -15 15 -1 28 12 11 17 11 20 1 8 -24 49 -31
84 -14 18 9 46 16 63 16 16 -1 22 1 13 4 -10 2 -18 9 -18 14 0 6 -7 6 -19 0
-17 -10 -31 -6 -31 9 0 4 11 12 24 18 18 8 27 7 39 -6 23 -22 33 -7 17 23 -11
21 -20 25 -44 22 -20 -2 -30 -9 -29 -18 2 -11 -8 -14 -38 -14 -32 0 -37 2 -24
11 18 13 4 30 -30 35 -30 4 -105 -11 -105 -22 0 -5 -8 -9 -17 -9 -17 1 -17 1
0 11 9 5 17 16 17 23 0 16 -92 15 -112 -2 -11 -8 -17 -6 -26 9 -7 10 -22 19
-35 19 -13 0 -27 4 -32 9 -18 16 -65 22 -65 9z"/>
<path d="M1352 1977 c-51 -14 -55 -27 -16 -47 l29 -15 -24 -3 c-20 -3 -14 -8
30 -23 69 -24 76 -23 54 1 -10 11 -26 20 -37 20 -28 0 -21 17 10 23 15 3 37
-1 50 -9 17 -11 27 -12 42 -4 14 7 26 8 38 1 9 -6 11 -11 5 -11 -7 0 -12 -10
-11 -22 1 -13 -2 -33 -6 -44 -8 -25 16 -33 77 -26 31 3 35 7 26 18 -6 8 -10
14 -8 15 2 0 15 2 29 4 14 2 45 8 70 14 54 12 90 5 91 -18 1 -9 4 -6 9 9 13
41 11 50 -10 50 -12 0 -31 7 -44 15 -22 15 -38 15 -131 3 -15 -2 -19 2 -17 15
3 16 -3 18 -48 16 -35 -2 -54 1 -60 10 -11 18 -95 23 -148 8z"/>
<path d="M2259 1955 c-3 -2 -22 -6 -44 -7 -21 -2 -40 -9 -43 -16 -3 -11 16
-17 47 -13 11 2 11 0 0 -12 -8 -8 -18 -13 -23 -10 -4 3 -33 6 -64 6 -45 0 -57
-4 -62 -19 -6 -17 -7 -17 -18 1 -10 17 -13 18 -21 6 -8 -12 -12 -12 -25 -2
-23 19 -166 15 -166 -5 0 -19 152 -36 177 -21 7 4 14 3 18 -3 3 -5 17 -7 31
-4 20 5 23 3 18 -10 -5 -13 -15 -15 -55 -10 -45 6 -49 5 -49 -14 0 -15 -9 -21
-35 -26 -52 -10 -45 -30 8 -22 28 4 37 3 27 -3 -8 -6 -11 -14 -6 -18 4 -4 14
1 22 11 8 11 14 14 14 8 0 -7 12 -12 26 -12 16 0 24 5 21 13 -2 6 -12 11 -21
11 -9 -1 -16 2 -16 7 0 5 11 9 25 9 14 0 30 9 37 20 7 11 23 20 36 20 13 0 20
-4 17 -10 -3 -5 -14 -10 -25 -10 -19 0 -30 -19 -30 -51 0 -25 12 -24 28 1 7
11 17 20 22 20 6 0 3 -11 -5 -24 l-16 -24 53 -6 c71 -7 158 -3 158 7 0 5 -4 5
-10 2 -5 -3 -10 -2 -10 2 0 5 23 16 50 26 28 10 50 22 50 27 0 6 7 10 15 10 8
0 15 -4 15 -10 0 -5 7 -10 15 -10 8 0 15 9 15 20 0 15 -7 20 -27 21 -90 5
-139 3 -145 -6 -5 -6 -8 -5 -8 3 0 15 -56 17 -65 2 -4 -6 -11 -8 -16 -5 -19
12 -8 23 29 29 76 14 94 29 51 44 -19 7 -19 9 -5 21 11 9 16 10 16 2 0 -6 11
-11 25 -11 15 0 25 -6 25 -14 0 -23 17 -28 60 -21 38 6 57 25 25 25 -8 0 -15
5 -15 10 0 15 26 12 40 -5 10 -12 16 -13 24 -5 14 14 -21 43 -42 35 -8 -3 -31
-1 -51 4 -51 13 -117 22 -122 16z"/>
<path d="M4119 1476 c-20 -35 -49 -49 -49 -24 0 9 -3 9 -12 0 -7 -7 -24 -12
-39 -12 -38 0 -59 -24 -59 -67 0 -30 9 -44 56 -89 31 -30 59 -54 64 -54 12 0
31 -60 23 -73 -4 -6 -1 -7 8 -1 8 4 66 9 129 9 107 1 119 3 168 29 29 15 55
32 58 37 3 5 9 7 13 5 4 -3 5 11 3 29 -5 38 -40 69 -68 58 -12 -4 -15 -3 -10
6 13 20 -14 41 -52 41 -21 0 -40 7 -47 17 -11 15 -18 15 -51 5 -22 -7 -52 -14
-68 -17 -15 -2 -39 -11 -52 -20 -33 -21 -37 -19 -29 16 5 21 4 29 -3 25 -6 -3
-13 -2 -16 2 -3 5 5 15 18 21 22 12 53 77 42 88 -3 3 -15 -11 -27 -31z"/>
<path d="M3283 1433 c0 -16 -12 -59 -27 -96 -14 -38 -24 -73 -21 -78 4 -5 21
-9 40 -9 35 0 76 37 90 80 13 40 32 21 38 -37 7 -67 -10 -106 -45 -101 -12 2
-23 -3 -25 -9 -3 -8 5 -13 20 -13 18 0 36 13 60 43 64 79 97 167 62 167 -10 0
-15 -10 -15 -27 0 -38 -10 -73 -21 -73 -5 0 -9 23 -9 50 0 43 -3 50 -19 50
-11 0 -23 -5 -26 -10 -5 -8 -11 -7 -21 1 -7 6 -25 8 -39 5 l-24 -6 19 45 19
45 -28 0 c-24 0 -28 -4 -28 -27z"/>
<path d="M2075 1440 c5 -8 -24 -129 -42 -176 -3 -9 4 -12 23 -11 21 2 29 8 30
22 2 53 3 55 38 55 66 0 110 65 70 104 -17 18 -130 23 -119 6z"/>
<path d="M2088 1126 c-67 -18 -116 -60 -146 -124 -21 -46 -24 -64 -18 -113 14
-142 103 -217 243 -205 37 3 105 9 151 12 76 6 83 8 88 30 6 22 11 24 65 24
53 0 59 -2 65 -24 5 -23 9 -24 144 -31 77 -4 143 -4 149 -1 14 9 31 97 32 164
0 66 4 61 46 -73 l28 -90 47 -3 c55 -4 56 -2 83 106 9 34 21 75 27 90 11 26
12 26 19 -23 4 -27 8 -75 8 -106 1 -42 5 -58 17 -63 9 -3 81 -6 160 -6 l144 0
0 64 0 63 61 7 c112 11 151 48 153 143 1 66 -15 106 -57 137 -26 19 -42 21
-175 21 l-146 0 2 -162 c1 -90 0 -163 -2 -163 -4 0 -29 136 -49 260 l-13 75
-75 3 c-53 2 -79 -1 -86 -10 -5 -7 -22 -55 -37 -107 -14 -52 -28 -96 -29 -98
-2 -2 -17 45 -34 104 l-30 108 -73 3 c-41 2 -77 -2 -85 -8 -7 -6 -16 -36 -20
-67 -10 -83 -50 -281 -57 -289 -4 -3 -10 7 -14 22 -3 16 -17 52 -29 79 -13 28
-39 94 -60 148 l-37 97 -82 0 -83 0 -16 -42 c-9 -24 -37 -105 -63 -180 -26
-76 -51 -138 -55 -138 -4 0 -13 16 -20 35 -12 32 -16 35 -42 29 -84 -18 -140
76 -84 142 18 20 33 27 65 28 40 1 42 2 57 45 21 62 19 80 -11 91 -33 13 -68
12 -126 -4z"/>
<path d="M529 749 l-46 -50 -101 4 c-98 3 -101 3 -86 -15 14 -15 16 -33 10
-123 -6 -92 -5 -105 9 -105 11 0 14 6 9 24 -3 13 0 34 7 47 12 23 12 23 23
-11 6 -18 17 -36 25 -38 11 -4 12 0 6 14 -10 24 -8 54 5 89 8 22 14 26 33 20
12 -4 36 -9 54 -12 31 -5 32 -7 35 -56 2 -34 8 -53 20 -61 22 -13 35 -1 19 18
-14 16 -9 52 14 121 8 22 16 52 19 67 4 18 13 28 28 30 33 4 34 34 1 63 -15
13 -30 24 -33 25 -3 0 -26 -23 -51 -51z"/>
<path d="M1637 751 c-9 -16 -17 -49 -17 -74 0 -35 -6 -51 -29 -78 -33 -37 -51
-33 -33 6 24 52 10 108 -20 88 -7 -4 -19 -8 -26 -9 -26 -4 -42 -26 -36 -49 4
-17 0 -24 -17 -28 -29 -8 -27 -10 -38 47 -9 51 -15 61 -29 52 -6 -3 -8 -35 -5
-73 4 -57 9 -71 29 -86 31 -24 30 -41 -3 -119 -35 -83 -36 -84 -90 -97 -25 -7
-65 -28 -89 -47 -39 -32 -48 -35 -96 -32 -42 2 -60 -2 -85 -20 -17 -12 -41
-22 -52 -22 -27 0 -27 -15 0 -33 15 -11 17 -16 7 -20 -10 -4 -10 -8 2 -16 26
-18 113 -13 161 11 24 11 64 23 89 25 114 10 119 12 114 50 -4 36 4 63 19 63
7 0 24 11 38 23 13 13 31 27 39 30 10 3 11 6 3 6 -14 1 -18 31 -4 31 5 0 14
-7 21 -15 6 -7 31 -17 55 -20 67 -11 109 23 70 55 -10 8 -15 30 -15 62 0 32
-6 55 -16 65 -21 22 -5 37 66 60 39 13 54 23 50 33 -2 8 -4 34 -5 58 0 24 -6
46 -13 51 -8 5 -13 11 -13 15 6 44 -8 47 -32 7z"/>
<path d="M1925 641 c-3 -6 -2 -67 1 -137 l7 -126 88 4 c68 3 93 8 109 23 20
18 21 18 53 0 48 -28 117 -25 160 8 36 27 47 26 47 -5 0 -15 8 -18 45 -18 29
0 45 4 45 13 0 25 22 89 28 82 4 -4 12 -28 17 -53 10 -46 11 -47 51 -50 l40
-3 12 51 c6 28 21 69 32 92 11 22 22 56 26 75 5 28 3 33 -12 33 -11 0 -29 3
-41 6 -17 5 -25 -1 -37 -25 -9 -16 -16 -42 -16 -56 0 -16 -4 -24 -11 -19 -6 3
-8 15 -5 27 9 34 -20 77 -53 77 -31 0 -51 -30 -51 -78 0 -15 -4 -33 -9 -40
-11 -18 -21 7 -21 54 0 66 -8 71 -107 67 -109 -4 -128 -8 -154 -34 l-20 -20
-29 30 c-27 30 -32 31 -108 31 -45 0 -83 -4 -87 -9z"/>
<path d="M3168 644 c-5 -4 -36 -8 -70 -8 l-63 -1 -8 -40 c-5 -22 -11 -51 -14
-65 -5 -20 -9 -11 -22 40 -14 58 -19 65 -43 68 -32 4 -43 -13 -53 -81 -9 -57
-17 -53 -30 16 l-10 52 -49 3 c-37 2 -47 0 -44 -10 3 -7 20 -58 38 -113 18
-55 37 -106 43 -113 6 -7 24 -11 41 -9 29 3 32 8 47 63 l16 59 13 -57 13 -58
39 0 c35 0 40 4 50 31 l10 30 27 -25 c59 -56 144 -58 200 -4 35 34 35 35 48
-7 9 -27 14 -30 49 -30 38 0 39 1 51 49 7 26 14 50 16 53 3 2 11 -22 18 -54
14 -58 14 -58 49 -55 19 1 37 6 41 10 5 5 60 169 77 230 2 8 -10 12 -41 12
-50 0 -53 -3 -63 -80 -4 -27 -10 -50 -15 -50 -5 0 -9 7 -9 15 0 7 -5 37 -11
65 -10 48 -12 50 -44 50 -32 0 -33 -1 -46 -65 -7 -36 -15 -62 -18 -59 -3 3
-10 33 -16 67 l-10 62 -55 3 c-30 1 -75 5 -100 8 -25 3 -48 2 -52 -2z"/>
</g>
</svg>
