<?xml version="1.0" standalone="no"?>
<!DOCTYPE svg PUBLIC "-//W3C//DTD SVG 20010904//EN"
 "http://www.w3.org/TR/2001/REC-SVG-20010904/DTD/svg10.dtd">
<svg version="1.0" xmlns="http://www.w3.org/2000/svg"
 width="920.000000pt" height="368.000000pt" viewBox="0 0 920.000000 368.000000"
 preserveAspectRatio="xMidYMid meet">
<metadata>
Created by potrace 1.16, written by Peter Selinger 2001-2019
</metadata>
<g transform="translate(0.000000,368.000000) scale(0.100000,-0.100000)"
fill="#000000" stroke="none">
<path d="M355 3376 c-159 -51 -253 -145 -319 -316 -21 -55 -21 -61 -24 -1172
-3 -1231 -4 -1195 59 -1324 57 -115 189 -217 316 -244 32 -7 1420 -9 4263 -8
l4215 3 70 29 c132 56 216 165 246 320 5 28 9 518 9 1171 0 1076 -1 1125 -19
1197 -48 187 -154 300 -330 352 -50 15 -419 16 -4235 16 l-4181 -1 -70 -23z
m2120 -405 c22 -10 51 -30 64 -44 l23 -26 -33 -20 -33 -20 -29 27 c-25 23 -36
27 -90 27 -73 0 -115 -24 -142 -81 -22 -47 -16 -134 11 -171 37 -50 72 -68
128 -68 71 0 106 23 106 70 l0 35 -65 0 -65 0 0 40 0 41 106 -3 106 -3 0 -89
c0 -82 -2 -91 -24 -108 -167 -129 -402 -26 -402 177 1 142 92 234 234 234 42
0 79 -6 105 -18z m505 -16 l0 -34 -117 -3 -118 -3 -3 -57 -3 -58 116 0 115 0
0 -35 0 -34 -112 -3 -113 -3 -3 -62 -3 -63 121 0 120 0 0 -35 0 -35 -160 0
-160 0 0 223 c0 123 3 227 7 230 3 4 75 7 160 7 l153 0 0 -35z m438 -1 l-3
-37 -65 -1 -65 -1 -3 -192 -2 -193 -40 0 -40 0 0 196 0 195 -67 -2 -68 -3 -3
37 -3 37 181 0 181 0 -3 -36z m362 -194 l0 -230 -40 0 -40 0 0 230 0 230 40 0
40 0 0 -230z m440 193 l0 -38 -66 0 -66 0 2 -192 1 -193 -46 0 -45 0 0 196 0
195 -67 -2 c-66 -2 -68 -2 -70 22 -4 49 -4 49 182 49 l175 0 0 -37z m593 24
c86 -37 137 -117 137 -217 0 -74 -19 -123 -67 -172 -72 -73 -196 -88 -289 -33
-158 92 -142 346 26 419 44 19 150 20 193 3z m427 -139 c61 -84 115 -154 118
-156 4 -1 7 67 7 150 l0 153 40 0 40 0 1 -227 1 -228 -41 0 -41 0 -118 161
-117 162 0 -162 0 -161 -40 0 -40 0 0 230 0 230 39 0 c39 0 40 -1 151 -152z
m-4327 -904 c237 -130 452 -248 477 -264 25 -15 108 -60 185 -101 259 -137
259 -145 -2 -288 l-161 -88 -118 118 -119 119 -378 -377 -378 -378 -20 24
c-18 22 -19 43 -19 639 0 338 2 613 4 611 4 -4 15 -146 17 -214 1 -35 2 -37 9
-15 7 22 8 22 10 5 1 -11 2 -29 1 -40 -1 -18 0 -18 9 3 13 29 22 28 16 -3 -3
-13 -1 -27 3 -30 5 -2 8 3 8 13 0 34 3 40 21 38 9 -2 15 -7 13 -12 -1 -5 -6
-8 -10 -7 -4 1 -8 -5 -8 -13 0 -12 3 -12 17 1 13 12 19 12 30 2 8 -6 7 -3 -3
9 -17 20 -17 22 0 35 15 12 16 12 10 -3 -3 -10 1 -22 11 -29 14 -11 15 -11 5
0 -13 15 -6 44 8 35 5 -3 6 -11 3 -17 -4 -7 -4 -9 1 -5 4 4 14 3 21 -3 9 -7
14 -6 20 3 4 7 4 10 -1 6 -14 -13 -33 11 -29 35 4 21 4 21 -5 2 l-10 -20 -1
20 -1 20 -9 -20 -9 -20 -1 20 c-1 16 -3 17 -8 4 -6 -13 -10 -9 -22 16 -12 23
-13 32 -3 32 6 0 12 -3 11 -6 -2 -20 3 -31 12 -26 5 3 7 13 4 23 -5 14 -4 15
5 2 10 -14 16 -7 11 15 -1 6 2 6 7 2 4 -5 9 -13 9 -18 3 -22 5 -23 14 -9 5 9
5 19 0 25 -7 8 -5 12 5 12 7 0 14 -3 13 -6 -2 -19 4 -24 12 -11 9 14 9 5 1
-55 -1 -5 -6 -3 -11 5 -7 12 -9 10 -7 -7 0 -12 3 -20 6 -18 2 3 10 0 18 -6 11
-10 11 -15 1 -28 -12 -14 -11 -14 4 -2 10 7 15 18 11 25 -4 6 -9 19 -10 30 -3
16 -1 17 12 6 8 -7 13 -16 10 -20 -3 -5 -1 -11 4 -15 6 -3 8 3 6 15 -2 11 0
22 6 25 8 6 13 -8 10 -28 -1 -5 3 -6 9 -2 7 4 7 12 0 25 -6 11 -7 28 -1 42 4
13 7 31 5 41 -1 11 0 16 3 13 4 -3 12 -1 20 6 11 9 13 8 11 -3 -2 -8 3 -13 10
-11 6 1 11 -1 11 -5 -3 -18 2 -27 9 -17 5 8 12 6 24 -5 16 -15 14 -17 -20 -16
-29 0 -36 -4 -34 -17 1 -9 -2 -19 -8 -23 -7 -4 -9 3 -6 19 5 30 -9 45 -17 16
-3 -10 1 -27 8 -37 10 -14 11 -21 2 -33 -10 -13 -10 -13 5 -2 10 8 16 19 15
25 -1 7 3 11 10 10 8 -2 10 4 6 15 -6 15 -5 15 10 3 9 -7 15 -17 12 -21 -3 -5
-1 -11 4 -14 5 -3 7 8 6 25 -2 19 2 28 9 26 6 -2 10 -13 10 -25 -1 -12 3 -19
7 -16 5 3 7 9 4 14 -3 5 -2 11 3 14 8 5 23 -7 112 -88 24 -23 -46 54 -157 169
-110 116 -226 234 -257 263 -31 29 -56 56 -56 59 0 16 91 -29 483 -243z m4702
132 l-30 -24 -3 -446 c-2 -291 1 -453 8 -465 7 -14 26 -22 66 -27 54 -6 56 -7
33 -20 -16 -9 -65 -13 -152 -14 l-128 0 15 22 c14 20 16 83 16 486 l0 465 -50
-5 c-27 -3 -50 -2 -50 2 0 3 21 16 48 27 37 17 69 21 152 22 l105 1 -30 -24z
m-2713 -69 c86 -27 175 -75 161 -86 -4 -4 -30 -28 -58 -53 -27 -25 -61 -49
-75 -53 l-24 -8 19 29 18 28 -38 33 c-21 18 -64 46 -94 61 -50 24 -67 27 -156
27 -93 0 -105 -2 -166 -32 -314 -155 -272 -656 68 -815 60 -28 79 -32 178 -36
78 -2 121 1 150 11 l40 14 0 109 0 109 -95 -3 -95 -3 50 30 c49 30 52 31 188
31 75 0 137 -4 137 -8 0 -5 -9 -17 -20 -27 -17 -15 -20 -33 -22 -138 l-3 -121
-80 -17 c-288 -65 -444 -63 -592 7 -183 86 -296 325 -252 536 36 177 173 324
354 381 77 24 92 26 215 22 88 -2 133 -9 192 -28z m4528 -477 l0 -470 -40 0
-40 0 0 463 c0 255 3 467 7 470 3 4 21 7 40 7 l33 0 0 -470z m-375 207 c26 -7
61 -32 97 -67 48 -47 59 -65 78 -128 31 -101 25 -241 -12 -323 -47 -104 -134
-166 -247 -176 -72 -6 -152 22 -215 78 l-46 41 0 -181 0 -181 -35 0 -35 0 0
470 0 470 35 0 35 0 0 -50 c0 -27 3 -50 6 -50 3 0 15 11 26 25 11 14 39 36 63
50 74 44 150 50 250 22z m898 1 c40 -12 110 -66 130 -101 8 -15 14 -103 18
-282 3 -143 9 -268 14 -278 7 -16 3 -18 -36 -15 l-44 3 -10 50 -10 50 -38 -37
c-51 -49 -130 -78 -213 -78 -138 0 -224 77 -224 200 0 54 38 111 99 147 69 42
127 53 266 53 l115 0 0 61 c0 115 -49 167 -166 177 -46 3 -76 0 -109 -12 -48
-19 -95 -66 -95 -97 0 -16 -7 -19 -40 -19 -34 0 -40 3 -40 20 0 48 69 128 129
152 75 28 171 31 254 6z m-4271 -15 c65 -30 133 -95 165 -162 25 -49 28 -67
28 -151 0 -110 -18 -160 -81 -230 -79 -87 -177 -125 -303 -118 -386 22 -453
545 -86 668 80 27 209 23 277 -7z m769 0 c139 -62 222 -216 198 -366 -30 -185
-191 -307 -387 -295 -106 7 -168 35 -236 109 -83 89 -111 195 -82 310 33 126
116 211 251 256 59 19 199 12 256 -14z m1694 3 c59 -28 98 -66 120 -119 l16
-38 -33 -13 c-170 -71 -316 -126 -334 -126 -48 0 -84 -13 -84 -30 0 -32 70
-158 106 -189 100 -88 193 -100 344 -44 25 9 -52 -56 -95 -80 -35 -19 -55 -22
-150 -22 -96 0 -116 3 -153 23 -59 31 -116 93 -149 160 -25 52 -28 67 -28 167
0 119 11 153 71 224 83 99 257 140 369 87z m-785 6 c0 -16 -91 -52 -131 -52
l-41 0 36 -37 c65 -68 82 -172 40 -256 -8 -17 -42 -57 -75 -88 -72 -69 -79
-104 -27 -147 95 -78 156 -148 168 -192 47 -177 -128 -330 -378 -330 -183 0
-305 84 -304 210 1 119 111 205 292 231 l87 12 -20 34 c-15 26 -18 45 -14 76
l6 42 -58 1 c-129 3 -221 98 -221 226 1 101 60 187 162 234 61 28 69 29 263
35 110 3 203 6 208 7 4 1 7 -2 7 -6z m2981 -187 c44 -104 99 -236 122 -292 23
-57 44 -103 47 -103 3 0 14 26 26 58 11 31 65 164 120 295 l99 237 37 0 c21 0
38 -4 38 -10 0 -19 -352 -836 -376 -873 -39 -59 -121 -89 -191 -71 -22 6 -29
27 -18 57 5 10 18 13 55 9 45 -4 52 -2 77 25 16 17 42 63 59 104 l31 74 -79
185 c-68 159 -189 447 -205 488 -4 10 5 12 37 10 l42 -3 79 -190z"/>
<path d="M4642 2900 c-48 -29 -72 -75 -72 -138 0 -105 53 -166 146 -167 56 0
90 18 127 67 48 65 24 196 -45 238 -43 26 -113 26 -156 0z"/>
<path d="M6861 1663 c-25 -9 -68 -39 -98 -67 l-53 -52 0 -152 0 -153 45 -48
c124 -132 296 -119 379 29 26 47 31 66 34 145 5 104 -6 154 -47 216 -55 83
-165 117 -260 82z"/>
<path d="M7746 1365 c-122 -43 -160 -143 -83 -220 57 -57 176 -55 271 5 66 42
86 80 86 163 l0 67 -117 0 c-75 -1 -132 -6 -157 -15z"/>
<path d="M3435 1685 c-53 -19 -111 -82 -125 -136 -33 -119 31 -338 120 -412
88 -75 217 -53 275 48 79 135 6 422 -124 490 -44 22 -101 27 -146 10z"/>
<path d="M4209 1684 c-126 -38 -168 -184 -109 -376 49 -159 152 -240 268 -209
21 6 51 20 66 32 93 73 100 280 14 441 -34 63 -71 98 -127 117 -42 14 -54 13
-112 -5z"/>
<path d="M5915 1671 c-68 -42 -95 -98 -95 -199 0 -63 -16 -65 172 17 144 64
153 73 124 129 -34 66 -137 93 -201 53z"/>
<path d="M4935 1665 c-22 -8 -41 -15 -42 -15 -1 0 -11 -16 -23 -35 -48 -77
-16 -240 60 -309 52 -47 96 -54 154 -27 61 30 81 73 73 157 -4 35 -16 86 -28
114 -22 50 -87 120 -113 120 -8 0 -20 2 -28 5 -7 2 -31 -2 -53 -10z"/>
<path d="M4937 1016 c-189 -41 -225 -221 -60 -302 51 -25 69 -29 148 -29 78 0
96 4 134 25 75 43 103 130 62 196 -11 17 -46 52 -79 78 -67 51 -94 56 -205 32z"/>
</g>
</svg>
