<?xml version="1.0" standalone="no"?>
<!DOCTYPE svg PUBLIC "-//W3C//DTD SVG 20010904//EN"
 "http://www.w3.org/TR/2001/REC-SVG-20010904/DTD/svg10.dtd">
<svg version="1.0" xmlns="http://www.w3.org/2000/svg"
 width="354.000000pt" height="142.000000pt" viewBox="0 0 354.000000 142.000000"
 preserveAspectRatio="xMidYMid meet">
<metadata>
Created by potrace 1.16, written by Peter Selinger 2001-2019
</metadata>
<g transform="translate(0.000000,142.000000) scale(0.100000,-0.100000)"
fill="#000000" stroke="none">
<path d="M299 1121 l-29 -29 0 -382 0 -382 29 -29 29 -29 1439 0 c1347 0 1439
2 1459 18 43 34 44 46 44 422 0 376 -1 388 -44 422 -20 16 -112 18 -1459 18
l-1439 0 -29 -29z m1041 -141 c46 -46 13 -117 -58 -127 l-42 -6 0 77 0 76 40
0 c27 0 47 -7 60 -20z m-599 -115 c38 -14 47 -14 91 1 57 19 104 13 143 -17
26 -21 26 -22 7 -43 -55 -60 -57 -119 -5 -176 36 -41 36 -41 20 -74 -8 -19
-30 -50 -48 -71 -30 -34 -35 -36 -73 -30 -52 8 -110 8 -162 0 -39 -7 -42 -5
-82 41 -44 49 -82 146 -82 208 0 75 35 135 95 162 39 17 44 17 96 -1z m1470
-121 c4 -2 5 -12 2 -22 -3 -14 -14 -18 -56 -17 -50 0 -52 -1 -55 -28 -3 -24 2
-30 42 -47 82 -37 107 -95 63 -146 -41 -48 -173 -44 -160 5 4 16 9 17 38 8 42
-13 82 -3 90 24 8 25 -10 48 -53 66 -49 20 -72 48 -72 86 0 54 56 91 120 81
19 -3 38 -8 41 -10z m-798 -138 c26 -79 47 -146 47 -150 0 -3 -11 -6 -24 -6
-20 0 -27 8 -38 43 -15 42 -15 42 -63 42 -48 0 -48 0 -62 -42 -12 -36 -19 -43
-40 -43 -19 0 -24 4 -19 17 4 9 25 77 48 150 l42 133 31 0 32 0 46 -144z m917
90 c0 -19 6 -25 27 -28 17 -2 29 -10 31 -20 3 -14 -3 -18 -27 -18 -31 0 -31 0
-31 -54 0 -67 7 -86 31 -86 12 0 19 -7 19 -20 0 -15 -7 -20 -27 -20 -53 0 -73
33 -73 119 0 48 -3 61 -15 61 -8 0 -15 9 -15 20 0 11 7 20 15 20 8 0 15 9 15
19 0 17 12 25 43 30 4 0 7 -10 7 -23z m-790 -42 c0 -14 2 -14 22 0 37 26 93
21 117 -11 72 -91 0 -223 -101 -185 l-28 10 0 -49 c0 -46 -2 -49 -25 -49 l-25
0 0 150 c0 143 1 150 20 150 11 0 20 -7 20 -16z m250 -1 c0 -15 1 -15 18 0 19
17 67 22 97 11 25 -10 45 -58 45 -109 0 -78 -69 -128 -131 -95 -18 10 -19 7
-19 -40 0 -47 -2 -50 -25 -50 l-25 0 0 150 c0 143 1 150 20 150 12 0 20 -7 20
-17z m801 -12 c24 -24 29 -38 29 -76 0 -40 -5 -52 -34 -81 -92 -92 -222 18
-161 136 20 38 41 49 93 50 35 0 49 -6 73 -29z m368 5 c12 -13 24 -39 28 -59
l5 -36 -75 -3 -76 -3 12 -25 c11 -22 19 -25 65 -25 42 0 52 -3 52 -16 0 -21
-20 -29 -72 -29 -30 0 -46 7 -69 29 -25 25 -29 37 -29 81 0 44 4 56 29 81 38
38 97 41 130 5z"/>
</g>
</svg>
